<svg xmlns="http://www.w3.org/2000/svg" width="93.548" height="81.498" viewBox="0 0 93.548 81.498">
  <g id="Consignements" transform="translate(-886.463 -376.425)">
    <g id="Group_2128" data-name="Group 2128" transform="translate(886.967 376.9)">
      <path id="Path_773" data-name="Path 773" d="M237.923,199.8c2.264,1.311,4.321,2.5,6.38,3.693,3.246,1.875,6.476,3.778,9.744,5.615,3.341,1.879,4.585,4.97,4.425,8.493a14.717,14.717,0,0,1-6.155,11.264,11.2,11.2,0,0,1-3.443,1.58,3.514,3.514,0,0,1-3.281-.737c-2-1.564-2.6-1.853-4.985-.055-7.268,5.478-14.488,11.019-21.726,16.535-3.654,2.785-7.318,5.557-10.952,8.367a1.1,1.1,0,0,1-1.453.091q-12.138-7.049-24.3-14.047a1.378,1.378,0,0,1-.762-1.144c-.279-2.073-.646-4.134-.916-6.208a1.752,1.752,0,0,1,.339-1.155c2.133-2.828,5.048-4.781,7.814-6.9,3.341-2.559,6.664-5.141,10.011-7.691q11.307-8.615,22.64-17.2a3.473,3.473,0,0,0,1.477-2.293c1.031-5.431,3.722-10.1,6.9-14.526a2.955,2.955,0,0,1,.526-.69.9.9,0,0,1,1.2-.139c3.315,1.963,6.686,3.831,10.032,5.741.544.311,1.057.676,1.585,1.015.8.513.844.738.306,1.516-.711,1.029-1.473,2.026-2.113,3.1C240.092,195.895,239.054,197.8,237.923,199.8Zm-30.5,54.346c.385-.276.647-.453.9-.644Q224.2,241.4,240.094,229.3a8.531,8.531,0,0,1,1.86-1.115,2.934,2.934,0,0,1,3.7.765,3.039,3.039,0,0,0,2.758,1,7.341,7.341,0,0,0,4.043-1.89,15.768,15.768,0,0,0,5.049-7.885,9.256,9.256,0,0,0,.214-4.91,3.391,3.391,0,0,0-4.566-2.656,9.527,9.527,0,0,0-2.842,1.454c-3.937,2.923-7.822,5.916-11.722,8.889q-8.324,6.343-16.644,12.693-7.457,5.684-14.911,11.371c-.248.19-.584.54-.555.774C206.745,249.856,207.081,251.917,207.421,254.15ZM235.327,212.2a24.471,24.471,0,0,1,1.821-11.694,46.866,46.866,0,0,1,5.86-10.154l-12.524-7.234c-1.421,2.333-2.929,4.578-4.2,6.949a24.939,24.939,0,0,0-3.317,14.209,1.338,1.338,0,0,0,.744,1.238c1.531.828,3.023,1.73,4.531,2.6C230.545,209.442,232.852,210.771,235.327,212.2Zm-51.063,17.09,20.958,12.1c.249-.178.465-.325.672-.483,11.328-8.632,22.62-17.311,34-25.87,3.626-2.726,7.151-5.767,12.054-6.444l-14.15-8.168c-1.563,4.042-2.5,8.007-1.7,12.423-.255.377-.665.472-1.313.092-3.708-2.178-7.442-4.312-11.165-6.463-.448-.259-.888-.533-1.271-.763v-5.464Zm22.05,17.523,3.38-2.574L240.2,220.985c3.279-2.5,6.543-5.019,9.848-7.484,1.912-1.426,3.983-2.283,6.577-1.087a5.539,5.539,0,0,0-3.657-2.964,6.848,6.848,0,0,0-5.094.989,51.778,51.778,0,0,0-5.011,3.155c-6.7,5.006-13.357,10.075-20.019,15.134-5.555,4.219-11.092,8.462-16.652,12.673a1.105,1.105,0,0,0-.511,1.234C205.916,243.947,206.085,245.27,206.314,246.811Zm.506,7.3c-.3-1.977-.61-3.8-.837-5.638a1.68,1.68,0,0,0-.938-1.406q-11.557-6.638-23.089-13.32c-.244-.141-.5-.259-.883-.455.3,1.991.618,3.843.851,5.707a1.521,1.521,0,0,0,.845,1.279q11.629,6.686,23.238,13.408C206.225,253.807,206.454,253.916,206.82,254.107Zm-1.112-7.32c-.218-1.507-.426-2.813-.587-4.125a1.38,1.38,0,0,0-.8-1.126q-7.3-4.175-14.572-8.4l-5.967-3.445-2.634,2.905Z" transform="translate(-180.486 -182.49)" fill="#4f5661" stroke="#4f5661" stroke-width="1"/>
      <path id="Path_774" data-name="Path 774" d="M330.358,395.629c-.34-2.233-.676-4.294-.938-6.365-.03-.234.306-.584.554-.774q7.445-5.7,14.911-11.371,8.324-6.344,16.644-12.693c3.9-2.972,7.786-5.965,11.722-8.889a9.528,9.528,0,0,1,2.842-1.454,3.391,3.391,0,0,1,4.566,2.656,9.257,9.257,0,0,1-.214,4.91,15.768,15.768,0,0,1-5.049,7.885,7.341,7.341,0,0,1-4.043,1.89,3.039,3.039,0,0,1-2.758-1,2.934,2.934,0,0,0-3.7-.765,8.528,8.528,0,0,0-1.86,1.115q-15.9,12.092-31.775,24.207C331,395.176,330.743,395.353,330.358,395.629Zm29.074-24.593c-.325-.352-.53-.743-.841-.864a1.325,1.325,0,0,0-1.087.074c-1.832,1.334-3.622,2.726-5.42,4.106-.158.122-.387.281-.4.439-.036.449-.14,1.021.083,1.33a.938.938,0,0,0,1.444.179c1.786-1.4,3.611-2.741,5.394-4.141A5.7,5.7,0,0,0,359.432,371.036Zm-.231-1.561a1.118,1.118,0,0,0,1.566,1.028,8.14,8.14,0,0,0,1.429-1.12,1.049,1.049,0,0,0-.428-1.838,1.165,1.165,0,0,0-.932.16C360.174,368.215,359.268,368.546,359.2,369.475Z" transform="translate(-303.424 -323.968)" fill="#d3e5ef"/>
      <path id="Path_775" data-name="Path 775" d="M435.82,215.158c-2.475-1.426-4.781-2.755-7.087-4.086-1.509-.871-3-1.772-4.531-2.6a1.338,1.338,0,0,1-.744-1.238,24.94,24.94,0,0,1,3.317-14.209c1.274-2.371,2.782-4.616,4.2-6.949L443.5,193.31a46.867,46.867,0,0,0-5.86,10.154A24.472,24.472,0,0,0,435.82,215.158Z" transform="translate(-380.98 -185.45)" fill="#d3e5ef"/>
      <path id="Path_776" data-name="Path 776" d="M202.129,313.271l38.089-29.04v5.464c.383.23.823.5,1.271.763,3.724,2.151,7.457,4.285,11.165,6.463.648.38,1.058.285,1.313-.092-.8-4.416.136-8.38,1.7-12.423l14.15,8.168c-4.9.677-8.429,3.717-12.054,6.444-11.382,8.56-22.675,17.239-34,25.87-.207.158-.423.3-.672.483ZM222.884,324.1a10.955,10.955,0,0,0,2.012-.979q13.778-10.456,27.513-20.967c1.558-1.19,1.5-2.013-.176-2.985q-7.58-4.385-15.165-8.76a3.228,3.228,0,0,0-4.236.314q-8.485,6.471-16.971,12.941-5.3,4.04-10.6,8.08c-1.156.885-1.095,1.888.157,2.612q7.92,4.582,15.857,9.134A11.614,11.614,0,0,0,222.884,324.1Z" transform="translate(-198.352 -266.474)" fill="#d3e5ef"/>
      <path id="Path_777" data-name="Path 777" d="M325.325,373.6c-.229-1.54-.4-2.863-.634-4.174a1.105,1.105,0,0,1,.511-1.234c5.56-4.212,11.1-8.455,16.652-12.673,6.662-5.059,13.317-10.128,20.019-15.134a51.769,51.769,0,0,1,5.011-3.155,6.848,6.848,0,0,1,5.094-.989,5.539,5.539,0,0,1,3.657,2.964c-2.594-1.2-4.664-.339-6.577,1.087-3.3,2.465-6.569,4.985-9.848,7.484l-30.506,23.251Z" transform="translate(-299.497 -309.28)" fill="#fff"/>
      <path id="Path_778" data-name="Path 778" d="M209.6,494.351c-.367-.191-.595-.3-.813-.426q-11.617-6.708-23.238-13.408a1.521,1.521,0,0,1-.845-1.279c-.232-1.863-.547-3.716-.851-5.707.382.2.639.314.883.455q11.542,6.664,23.089,13.32a1.68,1.68,0,0,1,.938,1.406C208.985,490.548,209.3,492.374,209.6,494.351Z" transform="translate(-183.262 -422.734)" fill="#d3e5ef"/>
      <path id="Path_779" data-name="Path 779" d="M208.853,470.032,184.3,455.843l2.634-2.905,5.967,3.445q7.282,4.2,14.572,8.4a1.38,1.38,0,0,1,.8,1.126C208.427,467.219,208.635,468.525,208.853,470.032Z" transform="translate(-183.632 -405.735)" fill="#fff"/>
      <path id="Path_780" data-name="Path 780" d="M464.477,447.695a5.7,5.7,0,0,1-.828,1.122c-1.782,1.4-3.608,2.745-5.394,4.141a.938.938,0,0,1-1.444-.179c-.222-.308-.119-.881-.083-1.33.013-.157.241-.317.4-.439,1.8-1.38,3.588-2.772,5.42-4.106a1.325,1.325,0,0,1,1.087-.074C463.947,446.952,464.152,447.343,464.477,447.695Zm-3.528,1.612a5.75,5.75,0,0,0-2.976,2.26l-.611.957c.247.015.355.056.4.019,1.894-1.433,3.789-2.865,5.663-4.324.166-.129.191-.438.282-.664l-.186-.113Z" transform="translate(-408.469 -400.627)" fill="#4f5661"/>
      <path id="Path_781" data-name="Path 781" d="M500.057,433.916c.068-.928.974-1.26,1.636-1.769a1.165,1.165,0,0,1,.932-.16,1.049,1.049,0,0,1,.428,1.838,8.138,8.138,0,0,1-1.429,1.119A1.118,1.118,0,0,1,500.057,433.916Zm.863.264.355.363c.461-.627,1.49-.724,1.558-1.718l-.207-.2Z" transform="translate(-444.281 -388.409)" fill="#4f5661"/>
      <path id="Path_782" data-name="Path 782" d="M231.764,346.516a10.345,10.345,0,0,1-1.433-.543q-7.07-4.05-14.12-8.134c-1.115-.645-1.169-1.538-.14-2.326q4.712-3.608,9.438-7.2l15.112-11.524a2.874,2.874,0,0,1,3.772-.279q6.754,3.9,13.5,7.8c1.5.865,1.544,1.6.157,2.658q-12.24,9.348-24.5,18.671A9.76,9.76,0,0,1,231.764,346.516Zm0-.553a9.365,9.365,0,0,0,1.486-.735c1.526-1.114,3.015-2.279,4.517-3.426q10.016-7.656,20.028-15.317c1.02-.782.981-1.056-.136-1.7q-6.755-3.9-13.511-7.8a2.3,2.3,0,0,0-3.182.215q-8.689,6.642-17.374,13.288c-2.366,1.806-4.755,3.582-7.126,5.38-.828.628-.8,1.052.081,1.564q6.988,4.042,13.986,8.065A8.785,8.785,0,0,0,231.769,345.963Z" transform="translate(-206.564 -290.767)" fill="#4f5661" stroke="#4f5661" stroke-width="1"/>
      <path id="Path_783" data-name="Path 783" d="M464.206,452.583l2.576-1.864.185.113c-.09.225-.116.535-.281.664-1.874,1.459-3.769,2.891-5.663,4.324-.049.037-.157,0-.4-.019l.611-.957Z" transform="translate(-411.726 -403.903)" fill="#fff"/>
      <path id="Path_784" data-name="Path 784" d="M467.1,461.4l-2.976,2.26A5.75,5.75,0,0,1,467.1,461.4Z" transform="translate(-414.616 -412.721)"/>
      <path id="Path_785" data-name="Path 785" d="M505,437.352l1.706-1.56.207.2c-.068.995-1.1,1.091-1.558,1.718Z" transform="translate(-448.36 -391.582)" fill="#fff"/>
      <path id="Path_802" data-name="Path 802" d="M359.909,364.916l3.085,1.766Z" transform="translate(-328.593 -333.076)"/>
      <path id="Path_808" data-name="Path 808" d="M297.908,444.743l3.7-2.819Z" transform="translate(-277.414 -396.643)"/>
      <g id="Group_2125" data-name="Group 2125" transform="translate(18.288 36.196)">
        <g id="Group_2125-2" data-name="Group 2125" transform="matrix(0.574, 0.819, -0.819, 0.574, 8.846, 0)">
          <path id="Path_809" data-name="Path 809" d="M1.634,2.279,1.661,2.2a2.08,2.08,0,0,0,1.26-.361.859.859,0,0,0,0-1.485A2.333,2.333,0,0,0,.429.363.856.856,0,0,0,.506,1.887,7.078,7.078,0,0,0,1.634,2.279Z" transform="translate(0 0)" fill="none" stroke="#4f5661" stroke-width="1"/>
          <path id="Path_810" data-name="Path 810" d="M1.692,2.286a6.471,6.471,0,0,0,1.162-.411A.856.856,0,0,0,2.887.332,2.342,2.342,0,0,0,.443.356a.869.869,0,0,0,.1,1.562A7.258,7.258,0,0,0,1.692,2.286Z" transform="translate(0.411 8.513)" fill="none" stroke="#4f5661" stroke-width="1"/>
          <path id="Path_811" data-name="Path 811" d="M1.714,0A2.007,2.007,0,0,0,.4.378a.854.854,0,0,0,0,1.448,2.357,2.357,0,0,0,2.518.011.858.858,0,0,0,0-1.483A1.977,1.977,0,0,0,1.714,0Z" transform="translate(0.211 4.26)" fill="none" stroke="#4f5661" stroke-width="1"/>
        </g>
        <g id="Group_2126" data-name="Group 2126" transform="matrix(0.574, 0.819, -0.819, 0.574, 13.505, 3.924)">
          <path id="Path_809-2" data-name="Path 809" d="M1.634,2.279,1.661,2.2a2.08,2.08,0,0,0,1.26-.361.859.859,0,0,0,0-1.485A2.333,2.333,0,0,0,.429.363.856.856,0,0,0,.506,1.887,7.078,7.078,0,0,0,1.634,2.279Z" transform="translate(0 0)" fill="none" stroke="#4f5661" stroke-width="1"/>
          <path id="Path_810-2" data-name="Path 810" d="M1.692,2.286a6.471,6.471,0,0,0,1.162-.411A.856.856,0,0,0,2.887.332,2.342,2.342,0,0,0,.443.356a.869.869,0,0,0,.1,1.562A7.258,7.258,0,0,0,1.692,2.286Z" transform="translate(0.411 8.513)" fill="none" stroke="#4f5661" stroke-width="1"/>
          <path id="Path_811-2" data-name="Path 811" d="M1.714,0A2.007,2.007,0,0,0,.4.378a.854.854,0,0,0,0,1.448,2.357,2.357,0,0,0,2.518.011.858.858,0,0,0,0-1.483A1.977,1.977,0,0,0,1.714,0Z" transform="translate(0.211 4.26)" fill="none" stroke="#4f5661" stroke-width="1"/>
        </g>
      </g>
      <g id="task-complete" transform="translate(45.999 57.287)">
        <g id="Layer_1_22_" transform="translate(0 0)">
          <g id="Group_2129" data-name="Group 2129">
            <path id="Path_813" data-name="Path 813" d="M47.1,27.631a1.366,1.366,0,0,0-1.807-.061L32.764,37.928l-8.352-5.011a1.366,1.366,0,0,0-1.818,1.96l9.051,12.808a1.368,1.368,0,0,0,1.1.578h.013a1.361,1.361,0,0,0,1.1-.559L47.269,29.432A1.369,1.369,0,0,0,47.1,27.631Z" transform="translate(-0.486 -27.259)" fill="#4f5661"/>
            <path id="Path_814" data-name="Path 814" d="M28.457,8.988h-16.4a2.732,2.732,0,0,0,0,5.465H28.456a2.732,2.732,0,0,0,0-5.465Z" transform="translate(-9.33 -7.11)" fill="#4f5661"/>
            <path id="Path_815" data-name="Path 815" d="M28.457,16.691h-16.4a2.732,2.732,0,0,0,0,5.465H28.456a2.732,2.732,0,0,0,0-5.465Z" transform="translate(-9.33 -6.616)" fill="#4f5661"/>
            <path id="Path_816" data-name="Path 816" d="M28.457,24.4h-16.4a2.732,2.732,0,0,0,0,5.465H28.456a2.732,2.732,0,0,0,0-5.465Z" transform="translate(-9.33 -6.123)" fill="#4f5661"/>
          </g>
        </g>
      </g>
    </g>
  </g>
</svg>
