<svg xmlns="http://www.w3.org/2000/svg" width="93.429" height="86.723" viewBox="0 0 93.429 86.723">
  <g id="Onboard_Device" data-name="Onboard Device" transform="translate(-179.982 -182.021)">
    <path id="Path_773" data-name="Path 773" d="M248.545,203.007c2.683,1.553,5.12,2.967,7.559,4.377,3.846,2.222,7.674,4.476,11.546,6.653,3.959,2.226,5.433,5.889,5.244,10.064a17.439,17.439,0,0,1-7.293,13.347,13.276,13.276,0,0,1-4.08,1.873,4.164,4.164,0,0,1-3.887-.873c-2.366-1.853-3.08-2.2-5.907-.065-8.612,6.491-17.167,13.057-25.744,19.593-4.33,3.3-8.671,6.584-12.977,9.915a1.307,1.307,0,0,1-1.722.107q-14.382-8.352-28.8-16.645a1.632,1.632,0,0,1-.9-1.356c-.33-2.456-.765-4.9-1.085-7.356a2.076,2.076,0,0,1,.4-1.369c2.527-3.351,5.981-5.665,9.259-8.176,3.959-3.032,7.9-6.091,11.863-9.113q13.4-10.208,26.827-20.377a4.116,4.116,0,0,0,1.75-2.717c1.222-6.435,4.41-11.967,8.172-17.212a3.5,3.5,0,0,1,.623-.817,1.063,1.063,0,0,1,1.419-.165c3.928,2.326,7.922,4.539,11.887,6.8.645.368,1.252.8,1.878,1.2.948.608,1,.875.363,1.8-.842,1.219-1.745,2.4-2.5,3.67C251.115,198.374,249.885,200.637,248.545,203.007ZM212.4,267.4c.456-.327.766-.537,1.064-.764q18.823-14.345,37.652-28.684a10.108,10.108,0,0,1,2.2-1.321,3.477,3.477,0,0,1,4.389.906,3.6,3.6,0,0,0,3.268,1.183,8.7,8.7,0,0,0,4.791-2.239,18.684,18.684,0,0,0,5.983-9.344,10.968,10.968,0,0,0,.254-5.818c-.677-2.674-2.769-3.951-5.411-3.147a11.289,11.289,0,0,0-3.367,1.723c-4.665,3.464-9.268,7.011-13.89,10.533q-9.864,7.517-19.723,15.04-8.836,6.735-17.669,13.474c-.294.225-.692.639-.657.917C211.6,262.314,212,264.757,212.4,267.4Zm33.067-49.711a29,29,0,0,1,2.158-13.857A55.533,55.533,0,0,1,254.57,191.8l-14.84-8.572c-1.684,2.765-3.471,5.425-4.98,8.234-2.813,5.238-4.468,10.789-3.931,16.837a1.585,1.585,0,0,0,.882,1.467c1.815.981,3.582,2.049,5.369,3.081C239.8,214.427,242.536,216,245.468,217.692Zm-60.506,20.25L209.8,252.28c.295-.211.551-.385.8-.572,13.423-10.228,26.8-20.512,40.291-30.655,4.3-3.231,8.473-6.833,14.284-7.636L248.4,203.739c-1.852,4.79-2.96,9.488-2.013,14.72-.3.447-.788.56-1.556.109-4.394-2.581-8.818-5.109-13.23-7.659-.531-.307-1.053-.631-1.506-.9v-6.474Zm26.128,20.763,4.006-3.051q18.074-13.776,36.148-27.551c3.886-2.961,7.753-5.947,11.669-8.868,2.266-1.689,4.719-2.7,7.793-1.288a6.563,6.563,0,0,0-4.333-3.512,8.114,8.114,0,0,0-6.036,1.172,61.356,61.356,0,0,0-5.938,3.738c-7.942,5.931-15.827,11.938-23.721,17.932-6.582,5-13.143,10.026-19.732,15.017a1.309,1.309,0,0,0-.606,1.462C210.619,255.313,210.818,256.88,211.09,258.705Zm.6,8.646c-.355-2.342-.723-4.505-.991-6.681A1.991,1.991,0,0,0,209.587,259q-13.694-7.866-27.359-15.784c-.289-.167-.594-.307-1.046-.539.359,2.359.733,4.554,1.008,6.762a1.8,1.8,0,0,0,1,1.516q13.78,7.923,27.536,15.888C210.985,267,211.256,267.125,211.69,267.351Zm-1.318-8.674c-.258-1.785-.5-3.333-.7-4.888a1.635,1.635,0,0,0-.942-1.335q-8.65-4.947-17.266-9.95l-7.071-4.082-3.121,3.442Z" fill="#4f5661" stroke="#4f5661" stroke-width="1"/>
    <path id="Path_774" data-name="Path 774" d="M330.532,403.349c-.4-2.646-.8-5.088-1.112-7.542-.035-.278.363-.692.657-.917q8.822-6.753,17.669-13.474,9.863-7.517,19.723-15.04c4.622-3.522,9.225-7.068,13.89-10.533a11.29,11.29,0,0,1,3.367-1.723c2.642-.8,4.734.473,5.411,3.147a10.968,10.968,0,0,1-.254,5.819,18.683,18.683,0,0,1-5.983,9.344,8.7,8.7,0,0,1-4.791,2.239,3.6,3.6,0,0,1-3.268-1.183,3.477,3.477,0,0,0-4.389-.906,10.105,10.105,0,0,0-2.2,1.321q-18.837,14.328-37.652,28.684C331.3,402.812,330.988,403.022,330.532,403.349Zm34.45-29.141c-.385-.417-.628-.88-1-1.024a1.57,1.57,0,0,0-1.288.088c-2.171,1.58-4.292,3.23-6.422,4.865-.188.144-.459.334-.474.52-.043.531-.165,1.21.1,1.576a1.111,1.111,0,0,0,1.711.212c2.116-1.654,4.279-3.248,6.391-4.907A6.754,6.754,0,0,0,364.982,374.208Zm-.274-1.85a1.325,1.325,0,0,0,1.856,1.219,9.648,9.648,0,0,0,1.693-1.327,1.243,1.243,0,0,0-.507-2.178,1.38,1.38,0,0,0-1.1.189C365.861,370.865,364.788,371.258,364.708,372.358Z" transform="translate(-118.13 -135.946)" fill="#d3e5ef"/>
    <path id="Path_775" data-name="Path 775" d="M438.122,220.536c-2.932-1.69-5.665-3.265-8.4-4.841-1.788-1.032-3.555-2.1-5.369-3.081a1.585,1.585,0,0,1-.882-1.467c-.537-6.048,1.117-11.6,3.931-16.837,1.509-2.809,3.3-5.47,4.98-8.234l14.84,8.572a55.534,55.534,0,0,0-6.944,12.031A29,29,0,0,0,438.122,220.536Z" transform="translate(-192.654 -2.844)" fill="#d3e5ef"/>
    <path id="Path_776" data-name="Path 776" d="M202.129,318.642l45.132-34.411v6.474c.454.273.975.6,1.506.9,4.412,2.549,8.836,5.078,13.23,7.658.767.451,1.253.338,1.556-.109-.947-5.232.161-9.93,2.013-14.72l16.767,9.679c-5.81.8-9.987,4.4-14.284,7.636-13.487,10.143-26.868,20.427-40.291,30.655-.246.187-.5.361-.8.572Zm24.593,12.836a12.984,12.984,0,0,0,2.384-1.16q16.326-12.39,32.6-24.845c1.846-1.41,1.78-2.386-.209-3.537q-8.981-5.2-17.97-10.381c-1.946-1.123-3.191-1.023-5.02.372q-10.054,7.668-20.11,15.334-6.28,4.787-12.559,9.575c-1.369,1.049-1.3,2.237.186,3.1q9.385,5.429,18.789,10.823A13.765,13.765,0,0,0,226.722,331.477Z" transform="translate(-17.167 -80.7)" fill="#d3e5ef"/>
    <path id="Path_777" data-name="Path 777" d="M325.447,380.538c-.272-1.825-.471-3.393-.751-4.946a1.31,1.31,0,0,1,.606-1.462c6.589-4.991,13.149-10.018,19.732-15.017,7.894-5.995,15.779-12,23.721-17.932a61.344,61.344,0,0,1,5.938-3.738,8.114,8.114,0,0,1,6.036-1.172,6.563,6.563,0,0,1,4.333,3.512c-3.073-1.417-5.527-.4-7.793,1.288-3.916,2.92-7.783,5.906-11.669,8.868l-36.148,27.551Z" transform="translate(-114.357 -121.832)" fill="#fff"/>
    <path id="Path_778" data-name="Path 778" d="M214.357,498.2c-.434-.226-.7-.355-.964-.5q-13.765-7.949-27.535-15.888a1.8,1.8,0,0,1-1-1.516c-.275-2.208-.649-4.4-1.008-6.762.453.232.757.372,1.046.539q13.676,7.9,27.359,15.784a1.991,1.991,0,0,1,1.111,1.666C213.634,493.7,214,495.859,214.357,498.2Z" transform="translate(-2.667 -230.85)" fill="#d3e5ef"/>
    <path id="Path_779" data-name="Path 779" d="M213.394,473.193,184.3,456.38l3.121-3.442,7.071,4.082q8.629,4.982,17.266,9.95a1.635,1.635,0,0,1,.942,1.335C212.89,469.859,213.136,471.408,213.394,473.193Z" transform="translate(-3.022 -214.516)" fill="#fff"/>
    <path id="Path_780" data-name="Path 780" d="M465.92,447.869a6.757,6.757,0,0,1-.981,1.329c-2.112,1.659-4.275,3.253-6.391,4.907a1.111,1.111,0,0,1-1.711-.212c-.263-.365-.141-1.044-.1-1.576.015-.186.286-.376.474-.52,2.131-1.635,4.252-3.285,6.422-4.865a1.57,1.57,0,0,1,1.288-.088C465.292,446.989,465.535,447.452,465.92,447.869Zm-4.18,1.91a6.814,6.814,0,0,0-3.527,2.678l-.724,1.134c.293.018.421.067.479.023,2.245-1.7,4.49-3.395,6.71-5.124.2-.153.226-.519.334-.786l-.22-.134Z" transform="translate(-219.068 -209.607)" fill="#4f5661"/>
    <path id="Path_781" data-name="Path 781" d="M500.057,434.279c.081-1.1,1.154-1.493,1.938-2.1a1.38,1.38,0,0,1,1.1-.189,1.243,1.243,0,0,1,.507,2.178,9.643,9.643,0,0,1-1.693,1.326A1.325,1.325,0,0,1,500.057,434.279Zm1.022.313.42.43c.547-.743,1.766-.857,1.846-2.036l-.245-.242Z" transform="translate(-253.479 -197.867)" fill="#4f5661"/>
    <path id="Path_782" data-name="Path 782" d="M234.8,352.171a12.255,12.255,0,0,1-1.7-.643q-8.377-4.8-16.731-9.638c-1.321-.764-1.385-1.823-.166-2.756q5.583-4.275,11.184-8.526,8.954-6.826,17.907-13.655c1.629-1.242,2.737-1.33,4.47-.331q8,4.618,16,9.243c1.772,1.025,1.83,1.894.186,3.149q-14.5,11.077-29.03,22.124A11.564,11.564,0,0,1,234.8,352.171Zm.006-.655a11.1,11.1,0,0,0,1.761-.871c1.808-1.32,3.573-2.7,5.352-4.06q11.868-9.072,23.731-18.15c1.209-.927,1.162-1.252-.161-2.017q-8-4.624-16.01-9.246c-1.568-.905-2.309-.862-3.771.255q-10.3,7.871-20.588,15.746c-2.8,2.14-5.634,4.244-8.444,6.375-.981.744-.953,1.246.1,1.853q8.28,4.789,16.573,9.557A10.407,10.407,0,0,0,234.808,351.516Z" transform="translate(-24.455 -103.621)" fill="#4f5661" stroke="#4f5661" stroke-width="1"/>
    <path id="Path_783" data-name="Path 783" d="M464.87,452.928l3.052-2.209.22.134c-.107.267-.137.634-.334.786-2.22,1.729-4.466,3.426-6.71,5.124-.058.044-.186-.005-.479-.023l.724-1.134Z" transform="translate(-222.197 -212.756)" fill="#fff"/>
    <path id="Path_784" data-name="Path 784" d="M467.647,461.4l-3.527,2.678A6.814,6.814,0,0,1,467.647,461.4Z" transform="translate(-224.974 -221.229)"/>
    <path id="Path_785" data-name="Path 785" d="M505,437.64l2.021-1.848.245.242c-.08,1.178-1.3,1.293-1.846,2.036Z" transform="translate(-257.399 -200.916)" fill="#fff"/>
    <path id="Path_802" data-name="Path 802" d="M359.909,364.916l3.656,2.093Z" transform="translate(-142.316 -144.698)"/>
    <path id="Path_808" data-name="Path 808" d="M297.908,445.264l4.38-3.34Z" transform="translate(-93.137 -205.78)"/>
    <g id="Group_2125" data-name="Group 2125" transform="translate(6 -3)">
      <g id="Group_2125-2" data-name="Group 2125" transform="matrix(0.574, 0.819, -0.819, 0.574, 365.067, -164.475)">
        <path id="Path_809" data-name="Path 809" d="M233.42,360.6l.032-.09a2.465,2.465,0,0,0,1.492-.427,1.018,1.018,0,0,0,0-1.759,2.765,2.765,0,0,0-2.952.007,1.014,1.014,0,0,0,.092,1.805A8.384,8.384,0,0,0,233.42,360.6Z" transform="translate(-0.546 -2.785)" fill="none" stroke="#4f5661" stroke-width="1"/>
        <path id="Path_810" data-name="Path 810" d="M233.43,464.292a7.668,7.668,0,0,0,1.377-.487,1.015,1.015,0,0,0,.039-1.828,2.775,2.775,0,0,0-2.9.028,1.03,1.03,0,0,0,.115,1.851A8.6,8.6,0,0,0,233.43,464.292Z" transform="translate(0 -96.386)" fill="none" stroke="#4f5661" stroke-width="1"/>
        <path id="Path_811" data-name="Path 811" d="M233.573,409.8a2.378,2.378,0,0,0-1.555.447,1.012,1.012,0,0,0,0,1.716,2.793,2.793,0,0,0,2.984.014,1.016,1.016,0,0,0,0-1.757A2.343,2.343,0,0,0,233.573,409.8Z" transform="translate(-0.356 -49.643)" fill="none" stroke="#4f5661" stroke-width="1"/>
      </g>
      <g id="Group_2126" data-name="Group 2126" transform="matrix(0.574, 0.819, -0.819, 0.574, 370.588, -159.825)">
        <path id="Path_809-2" data-name="Path 809" d="M233.42,360.6l.032-.09a2.465,2.465,0,0,0,1.492-.427,1.018,1.018,0,0,0,0-1.759,2.765,2.765,0,0,0-2.952.007,1.014,1.014,0,0,0,.092,1.805A8.384,8.384,0,0,0,233.42,360.6Z" transform="translate(-0.546 -2.785)" fill="none" stroke="#4f5661" stroke-width="1"/>
        <path id="Path_810-2" data-name="Path 810" d="M233.43,464.292a7.668,7.668,0,0,0,1.377-.487,1.015,1.015,0,0,0,.039-1.828,2.775,2.775,0,0,0-2.9.028,1.03,1.03,0,0,0,.115,1.851A8.6,8.6,0,0,0,233.43,464.292Z" transform="translate(0 -96.386)" fill="none" stroke="#4f5661" stroke-width="1"/>
        <path id="Path_811-2" data-name="Path 811" d="M233.573,409.8a2.378,2.378,0,0,0-1.555.447,1.012,1.012,0,0,0,0,1.716,2.793,2.793,0,0,0,2.984.014,1.016,1.016,0,0,0,0-1.757A2.343,2.343,0,0,0,233.573,409.8Z" transform="translate(-0.356 -49.643)" fill="none" stroke="#4f5661" stroke-width="1"/>
      </g>
    </g>
  </g>
</svg>
