<svg xmlns="http://www.w3.org/2000/svg" width="77.599" height="77.599" viewBox="0 0 77.599 77.599">
  <g id="Reports" transform="translate(0.5 0.5)">
    <path id="Path_817" data-name="Path 817" d="M37.732,35.906a6.7,6.7,0,0,0,4.66-1.893l6.643,3.321a6.594,6.594,0,0,0-.082.816,6.732,6.732,0,0,0,13.465,0,6.65,6.65,0,0,0-.675-2.884l9.011-9.011a6.651,6.651,0,0,0,2.884.675A6.74,6.74,0,0,0,80.37,20.2a6.631,6.631,0,0,0-.336-1.994l7.83-5.871a6.728,6.728,0,1,0-3.006-5.6,6.631,6.631,0,0,0,.336,1.994L77.365,14.6a6.7,6.7,0,0,0-9.784,8.484l-9.011,9.011a6.615,6.615,0,0,0-7.544,1.218l-6.643-3.321a6.593,6.593,0,0,0,.082-.816,6.732,6.732,0,1,0-6.732,6.732Zm0,0" transform="translate(-26.362)" fill="#d3e5ef" stroke="#4f5661" stroke-width="1"/>
    <path id="Path_818" data-name="Path 818" d="M74.355,199.67H71.961V152.244A2.243,2.243,0,0,0,69.717,150H60.74a2.243,2.243,0,0,0-2.244,2.244V199.67H54.008V165.709a2.243,2.243,0,0,0-2.244-2.244H42.788a2.243,2.243,0,0,0-2.244,2.244V199.67H36.055V183.662a2.243,2.243,0,0,0-2.244-2.244H24.835a2.243,2.243,0,0,0-2.244,2.244V199.67H18.1V174.685a2.243,2.243,0,0,0-2.244-2.244H6.882a2.243,2.243,0,0,0-2.244,2.244V199.67H2.244a2.244,2.244,0,1,0,0,4.488H74.355a2.244,2.244,0,1,0,0-4.488Zm0,0" transform="translate(0 -127.559)" fill="#d3e5ef" stroke="#4f5661" stroke-width="1"/>
  </g>
</svg>
