<svg xmlns="http://www.w3.org/2000/svg" width="77.81" height="97.502" viewBox="0 0 77.81 97.502">
  <g id="Requistions" transform="translate(-887.708 -355.224)">
    <g id="Group_2107" data-name="Group 2107" transform="translate(888.209 424.409)">
      <g id="Group_2064" data-name="Group 2064" transform="translate(0 0)">
        <path id="Path_724" data-name="Path 724" d="M42.744,574.981c-.125-.389-.494-.474-1.062-.218a.816.816,0,0,1,.048-.2c1.173-2.058,2.329-4.126,3.534-6.165a8.333,8.333,0,0,1,2.181-2.566,6.218,6.218,0,0,1,2.917-1.076,1.261,1.261,0,0,1,.375.066l1.021,1a.951.951,0,0,1-.313.094,5.375,5.375,0,0,0-2.786.568,4.884,4.884,0,0,0-1.95,1.905c-.868,1.4-1.681,2.829-2.51,4.251-.412.706-.8,1.425-1.213,2.132-.05.086-.165.133-.249.2Z" transform="translate(-39.842 -548.956)" fill="#4f5661" stroke="#707070" stroke-width="1"/>
        <g id="Group_2063" data-name="Group 2063">
          <path id="Path_725" data-name="Path 725" d="M67.119,448.136l4.259-1.565.082.216a1.853,1.853,0,0,0,.187-.1c.089-.062.167-.144.261-.2s.224-.116.262-.084a.387.387,0,0,1,.138.293,3.507,3.507,0,0,1-.231.829c-.035.078-.252.1-.386.1-.071,0-.143-.1-.3-.214.226.367.016.423-.2.5-1.664.61-3.329,1.219-4.987,1.847-.438.166-.852.4-1.274.606a10.257,10.257,0,0,1-3.291.867,34.729,34.729,0,0,1-6.051.275c-1.4-.063-2.8-.242-4.194-.377-.362-.035-.721-.091-1.08-.152a1.21,1.21,0,0,1-.455-.142.545.545,0,0,1-.222-.668.511.511,0,0,1,.552-.387c.592.058,1.182.14,1.771.221a32.382,32.382,0,0,0,6.714.283c1.358-.1,2.715-.248,4.062-.444a5.753,5.753,0,0,0,2.42-.99,1.851,1.851,0,0,0,.673-2.307,2.382,2.382,0,0,0-2.347-1.635c-2.741,0-5.482.006-8.224,0-.544,0-1.088-.06-1.63-.115a.84.84,0,0,1-.428-.182,6.384,6.384,0,0,1-.786-.753.649.649,0,0,0-.8-.238c-.319.134-.58-.012-.869-.075a2.556,2.556,0,0,0-.609,0,1.5,1.5,0,0,1-.507.015c-1.435-.514-2.862-1.047-4.292-1.573a8.932,8.932,0,0,0-6.142-.059,20.362,20.362,0,0,0-7.812,4.734c-1.123,1.1-2.125,2.324-3.173,3.5a.555.555,0,0,1-.647.2c-.171-.072-.384-.27-.4-.428a.987.987,0,0,1,.229-.64c.569-.7,1.17-1.366,1.76-2.045a22.011,22.011,0,0,1,7.114-5.414A15.186,15.186,0,0,1,41,440.284a8.065,8.065,0,0,1,3.543.239c2.145.707,4.263,1.5,6.391,2.256a13.1,13.1,0,0,0,2.96.85,12.327,12.327,0,0,0,1.3.09c2.751.008,5.5.031,8.254-.007a3.639,3.639,0,0,1,3.66,3.019A9.983,9.983,0,0,1,67.119,448.136Zm4.113-.633.076-.055-.229-.456-.259.3Z" transform="translate(-27.169 -440.195)" fill="#4f5661" stroke="#707070" stroke-width="1"/>
          <path id="Path_726" data-name="Path 726" d="M126.27,481.5a1.035,1.035,0,0,1,.353-.012c1.827.614,3.649,1.239,5.475,1.858,2.714.92,5.416,1.878,8.149,2.74a7.957,7.957,0,0,0,6.413-.7c2.825-1.547,5.638-3.117,8.456-4.676q3.368-1.862,6.737-3.721c1.459-.806,2.91-1.625,4.378-2.412a2.348,2.348,0,0,0,1.19-2.841,2.276,2.276,0,0,0-2.985-1.428c-1.048.366-2.085.764-3.127,1.149-.644.237-1.286.479-1.931.712-.375.135-.755.258-1.157.394-.115-.435.578-.82-.041-1.254.353-.05.568-.324.878-.127.034.022.175-.064.218-.131.134-.208.289-.156.437-.048.19.137.117.306.008.45-.1.128-.223.233-.326.356a.418.418,0,0,0-.045.156l.077.067c.188-.189.385-.37.562-.569.233-.263.09-.5-.122-.724l.053-.085.562.056.1-.265c1.111-.408,2.251-.808,3.377-1.245a3.5,3.5,0,0,1,4.619,2.23,3.436,3.436,0,0,1-1.589,4.073c-2.657,1.5-5.337,2.952-8.006,4.427q-3.566,1.971-7.131,3.944c-1.7.941-3.389,1.919-5.121,2.805a9.111,9.111,0,0,1-5,.913,16.346,16.346,0,0,1-3.85-1.028q-4.36-1.47-8.718-2.946-1.763-.6-3.53-1.181c-.142-.047-.234-.1-.086-.24Z" transform="translate(-113.008 -465.312)" fill="#4f5661" stroke="#707070" stroke-width="1"/>
          <path id="Path_727" data-name="Path 727" d="M37.3,644.336a1.358,1.358,0,0,1-.078.375c-.233.436-.485.861-.712,1.259l-1.054-.555c.172-.3.348-.654.562-.979a.989.989,0,0,1,1.082-.154.769.769,0,0,0,.208.062Z" transform="translate(-34.402 -618.32)" fill="#4f5661" stroke="#707070" stroke-width="1"/>
        </g>
        <path id="Path_728" data-name="Path 728" d="M114.115,565.634l-1.021-1c.085-.034.174-.1.254-.1q.967.106,1.93.245c.068.01.122.115.182.176l-.721.7A.388.388,0,0,1,114.115,565.634Z" transform="translate(-102.198 -548.766)" fill="#4f5661" stroke="#707070" stroke-width="1"/>
        <path id="Path_729" data-name="Path 729" d="M209.119,467.482c.184.025.407-.008.544.086a.948.948,0,0,0,.816.075.755.755,0,0,1,.837.3,2.217,2.217,0,0,0,.24.27c.074.074.157.138.236.206l-.05.111-2.642-.889Z" transform="translate(-186.03 -464.022)" fill="#4f5661" stroke="#707070" stroke-width="1"/>
        <path id="Path_730" data-name="Path 730" d="M371.815,494.312l-.412-.213.259-.3.228.456Z" transform="translate(-327.752 -487.003)" fill="#4f5661" stroke="#4f5661" stroke-width="1"/>
      </g>
    </g>
    <g id="Group_2127" data-name="Group 2127" transform="translate(890.114 355.701)">
      <path id="Path_773" data-name="Path 773" d="M235.644,199.118c2.174,1.259,4.149,2.4,6.126,3.547,3.117,1.8,6.219,3.628,9.357,5.392,3.208,1.8,4.4,4.772,4.25,8.156a14.133,14.133,0,0,1-5.911,10.817,10.76,10.76,0,0,1-3.306,1.518,3.375,3.375,0,0,1-3.15-.708c-1.917-1.5-2.5-1.78-4.788-.053-6.979,5.26-13.913,10.582-20.864,15.879-3.509,2.674-7.027,5.336-10.517,8.035a1.06,1.06,0,0,1-1.4.087q-11.656-6.769-23.34-13.49a1.323,1.323,0,0,1-.732-1.1c-.268-1.991-.62-3.97-.879-5.962a1.682,1.682,0,0,1,.325-1.109c2.048-2.716,4.847-4.592,7.5-6.626,3.208-2.457,6.4-4.937,9.614-7.386Q208.8,207.844,219.68,199.6a3.336,3.336,0,0,0,1.418-2.2c.99-5.215,3.574-9.7,6.623-13.949a2.838,2.838,0,0,1,.5-.662.861.861,0,0,1,1.15-.134c3.183,1.885,6.42,3.679,9.634,5.513.522.3,1.015.649,1.522.974.768.493.81.709.294,1.456-.682.988-1.415,1.946-2.029,2.974C237.726,195.363,236.73,197.2,235.644,199.118Zm-29.292,52.189c.37-.265.621-.435.862-.619q15.255-11.626,30.514-23.247a8.192,8.192,0,0,1,1.786-1.071,2.818,2.818,0,0,1,3.557.735,2.918,2.918,0,0,0,2.649.958,7.05,7.05,0,0,0,3.883-1.815,15.142,15.142,0,0,0,4.849-7.572,8.889,8.889,0,0,0,.206-4.716,3.256,3.256,0,0,0-4.385-2.55,9.148,9.148,0,0,0-2.729,1.4c-3.78,2.807-7.512,5.682-11.257,8.536q-7.994,6.092-15.984,12.189-7.161,5.458-14.32,10.92c-.238.182-.561.518-.533.743C205.7,247.183,206.025,249.162,206.352,251.307Zm26.8-40.288a23.5,23.5,0,0,1,1.749-11.23,45.007,45.007,0,0,1,5.628-9.751L228.5,183.091c-1.365,2.241-2.813,4.4-4.036,6.673a23.95,23.95,0,0,0-3.186,13.645,1.285,1.285,0,0,0,.715,1.189c1.471.8,2.9,1.661,4.352,2.5C228.559,208.373,230.774,209.649,233.15,211.019Zm-49.036,16.412,20.126,11.62c.239-.171.446-.312.645-.464,10.878-8.289,21.723-16.624,32.653-24.844,3.482-2.618,6.867-5.538,11.576-6.188l-13.588-7.844c-1.5,3.882-2.4,7.689-1.631,11.93-.245.362-.639.454-1.261.088-3.561-2.092-7.146-4.141-10.722-6.207-.431-.249-.853-.512-1.221-.733v-5.247Zm21.175,16.828,3.246-2.472,29.3-22.329c3.149-2.4,6.283-4.82,9.457-7.187,1.836-1.369,3.825-2.192,6.316-1.044a5.319,5.319,0,0,0-3.512-2.846,6.576,6.576,0,0,0-4.892.95,49.721,49.721,0,0,0-4.813,3.03c-6.436,4.807-12.827,9.675-19.224,14.533-5.335,4.051-10.652,8.126-15.991,12.17a1.061,1.061,0,0,0-.491,1.185C204.907,241.508,205.069,242.779,205.289,244.258Zm.486,7.007c-.288-1.9-.586-3.651-.8-5.414a1.613,1.613,0,0,0-.9-1.35q-11.1-6.375-22.173-12.792c-.234-.135-.481-.249-.848-.437.291,1.912.594,3.691.817,5.48a1.461,1.461,0,0,0,.811,1.228q11.168,6.421,22.316,12.876C205.2,250.977,205.423,251.081,205.775,251.265Zm-1.068-7.03c-.209-1.447-.409-2.7-.564-3.962a1.325,1.325,0,0,0-.764-1.082q-7.01-4.009-13.993-8.064l-5.731-3.308-2.53,2.79Z" transform="translate(-180.487 -182.49)" fill="#4f5661" stroke="#4f5661" stroke-width="1"/>
      <path id="Path_774" data-name="Path 774" d="M330.32,393.972c-.326-2.145-.649-4.124-.9-6.112-.029-.225.294-.561.532-.743q7.15-5.473,14.32-10.92,7.993-6.092,15.984-12.189c3.746-2.854,7.477-5.729,11.257-8.536a9.15,9.15,0,0,1,2.729-1.4,3.256,3.256,0,0,1,4.385,2.55,8.889,8.889,0,0,1-.206,4.716,15.142,15.142,0,0,1-4.849,7.572,7.05,7.05,0,0,1-3.883,1.815,2.918,2.918,0,0,1-2.649-.958,2.818,2.818,0,0,0-3.557-.735,8.191,8.191,0,0,0-1.786,1.071q-15.266,11.612-30.514,23.247C330.942,393.537,330.69,393.707,330.32,393.972Zm27.92-23.617c-.312-.338-.509-.714-.808-.83a1.272,1.272,0,0,0-1.044.071c-1.759,1.281-3.478,2.618-5.2,3.943-.152.117-.372.27-.384.421-.035.431-.134.981.079,1.277a.9.9,0,0,0,1.386.171c1.715-1.34,3.468-2.632,5.18-3.977A5.471,5.471,0,0,0,358.24,370.355Zm-.222-1.5a1.074,1.074,0,0,0,1.5.988,7.817,7.817,0,0,0,1.372-1.075,1.008,1.008,0,0,0-.411-1.765,1.119,1.119,0,0,0-.895.153C358.953,367.646,358.083,367.964,358.018,368.856Z" transform="translate(-304.455 -325.155)" fill="#d3e5ef"/>
      <path id="Path_775" data-name="Path 775" d="M435.326,214c-2.376-1.37-4.591-2.646-6.806-3.924-1.449-.836-2.881-1.7-4.352-2.5a1.285,1.285,0,0,1-.715-1.189,23.95,23.95,0,0,1,3.186-13.645c1.223-2.277,2.671-4.433,4.036-6.673l12.027,6.947a45.007,45.007,0,0,0-5.628,9.751A23.5,23.5,0,0,0,435.326,214Z" transform="translate(-382.663 -185.475)" fill="#d3e5ef"/>
      <path id="Path_776" data-name="Path 776" d="M202.129,312.119l36.577-27.888v5.247c.368.221.79.484,1.221.733,3.576,2.066,7.161,4.115,10.722,6.207.622.365,1.016.274,1.261-.088-.768-4.241.13-8.048,1.632-11.93l13.588,7.844c-4.709.65-8.094,3.57-11.576,6.188-10.931,8.22-21.775,16.554-32.653,24.844-.2.151-.406.292-.645.464Zm19.931,10.4a10.523,10.523,0,0,0,1.932-.94q13.231-10.041,26.421-20.135c1.5-1.142,1.443-1.933-.169-2.866q-7.279-4.211-14.563-8.413a3.1,3.1,0,0,0-4.068.3q-8.148,6.215-16.3,12.428-5.089,3.88-10.179,7.76c-1.11.85-1.051,1.813.151,2.509q7.606,4.4,15.227,8.772A11.159,11.159,0,0,0,222.06,322.521Z" transform="translate(-198.502 -267.178)" fill="#d3e5ef"/>
      <path id="Path_777" data-name="Path 777" d="M325.3,372.112c-.22-1.479-.382-2.75-.609-4.009a1.061,1.061,0,0,1,.491-1.185c5.34-4.045,10.657-8.119,15.991-12.17,6.4-4.858,12.788-9.726,19.225-14.533a49.717,49.717,0,0,1,4.813-3.03,6.576,6.576,0,0,1,4.892-.95,5.319,5.319,0,0,1,3.512,2.846c-2.491-1.148-4.479-.326-6.316,1.044-3.174,2.367-6.308,4.787-9.457,7.187l-29.3,22.329Z" transform="translate(-300.496 -310.344)" fill="#fff"/>
      <path id="Path_778" data-name="Path 778" d="M208.574,493.524c-.352-.184-.571-.288-.781-.409q-11.156-6.442-22.316-12.876a1.461,1.461,0,0,1-.811-1.228c-.223-1.789-.526-3.569-.817-5.48.367.188.614.3.848.437q11.084,6.4,22.173,12.792a1.614,1.614,0,0,1,.9,1.35C207.988,489.873,208.286,491.626,208.574,493.524Z" transform="translate(-183.285 -424.75)" fill="#d3e5ef"/>
      <path id="Path_779" data-name="Path 779" d="M207.878,469.353,184.3,455.728l2.53-2.79,5.731,3.308q6.993,4.037,13.993,8.063a1.325,1.325,0,0,1,.764,1.082C207.47,466.652,207.669,467.907,207.878,469.353Z" transform="translate(-183.658 -407.608)" fill="#fff"/>
      <path id="Path_780" data-name="Path 780" d="M464.167,447.657a5.476,5.476,0,0,1-.795,1.077c-1.712,1.344-3.465,2.636-5.18,3.977a.9.9,0,0,1-1.386-.172c-.214-.3-.114-.846-.079-1.277.012-.151.232-.3.384-.421,1.727-1.325,3.446-2.662,5.2-3.943a1.272,1.272,0,0,1,1.044-.071C463.658,446.944,463.856,447.319,464.167,447.657Zm-3.388,1.548a5.522,5.522,0,0,0-2.858,2.171l-.587.919c.238.014.341.054.388.018,1.819-1.376,3.639-2.751,5.438-4.152.159-.124.184-.421.27-.637l-.178-.108Z" transform="translate(-410.382 -402.457)" fill="#4f5661"/>
      <path id="Path_781" data-name="Path 781" d="M500.057,433.838c.065-.892.935-1.21,1.571-1.7a1.119,1.119,0,0,1,.895-.153,1.008,1.008,0,0,1,.411,1.765,7.814,7.814,0,0,1-1.372,1.075A1.074,1.074,0,0,1,500.057,433.838Zm.828.253.341.348c.443-.6,1.431-.695,1.5-1.65l-.2-.2Z" transform="translate(-446.494 -390.137)" fill="#4f5661"/>
      <path id="Path_782" data-name="Path 782" d="M231.112,345.3a9.93,9.93,0,0,1-1.377-.521q-6.789-3.889-13.559-7.811c-1.071-.619-1.122-1.477-.134-2.234q4.525-3.465,9.064-6.91l14.513-11.066a2.76,2.76,0,0,1,3.623-.268q6.486,3.742,12.968,7.491c1.436.831,1.483,1.535.151,2.552q-11.754,8.977-23.527,17.93A9.373,9.373,0,0,1,231.112,345.3Zm0-.531a8.992,8.992,0,0,0,1.427-.706c1.465-1.07,2.9-2.188,4.337-3.29q9.618-7.352,19.233-14.71c.98-.751.942-1.014-.131-1.634q-6.487-3.748-12.975-7.493a2.213,2.213,0,0,0-3.056.207q-8.344,6.379-16.685,12.761c-2.272,1.734-4.566,3.439-6.843,5.167-.8.6-.772,1.01.077,1.5q6.71,3.881,13.431,7.745A8.439,8.439,0,0,0,231.117,344.772Z" transform="translate(-206.912 -291.765)" fill="#4f5661" stroke="#4f5661" stroke-width="1"/>
      <path id="Path_783" data-name="Path 783" d="M464.064,452.509l2.474-1.79.178.108c-.087.217-.111.514-.27.637-1.8,1.4-3.619,2.777-5.438,4.152-.047.036-.151,0-.388-.018l.587-.919Z" transform="translate(-413.666 -405.761)" fill="#fff"/>
      <path id="Path_784" data-name="Path 784" d="M466.978,461.4l-2.858,2.171A5.522,5.522,0,0,1,466.978,461.4Z" transform="translate(-416.58 -414.653)"/>
      <path id="Path_785" data-name="Path 785" d="M505,437.29l1.638-1.5.2.2c-.065.955-1.053,1.048-1.5,1.65Z" transform="translate(-450.608 -393.336)" fill="#fff"/>
      <path id="Path_802" data-name="Path 802" d="M359.909,364.916l2.963,1.7Z" transform="translate(-329.836 -334.34)"/>
      <path id="Path_808" data-name="Path 808" d="M297.908,444.631l3.55-2.707Z" transform="translate(-278.227 -398.44)"/>
      <g id="Group_2125" data-name="Group 2125" transform="translate(17.562 34.76)">
        <g id="Group_2125-2" data-name="Group 2125" transform="matrix(0.574, 0.819, -0.819, 0.574, 8.495, 0)">
          <path id="Path_809" data-name="Path 809" d="M1.57,2.188,1.6,2.116A2,2,0,0,0,2.8,1.769.825.825,0,0,0,2.8.343,2.241,2.241,0,0,0,.412.349.822.822,0,0,0,.486,1.812,6.794,6.794,0,0,0,1.57,2.188Z" transform="translate(0 0)" fill="none" stroke="#4f5661" stroke-width="1"/>
          <path id="Path_810" data-name="Path 810" d="M1.625,2.2A6.217,6.217,0,0,0,2.741,1.8.822.822,0,0,0,2.773.319,2.249,2.249,0,0,0,.425.342a.834.834,0,0,0,.093,1.5A6.965,6.965,0,0,0,1.625,2.2Z" transform="translate(0.395 8.175)" fill="none" stroke="#4f5661" stroke-width="1"/>
          <path id="Path_811" data-name="Path 811" d="M1.646,0A1.927,1.927,0,0,0,.386.363a.82.82,0,0,0,0,1.391A2.263,2.263,0,0,0,2.8,1.765.824.824,0,0,0,2.8.341,1.9,1.9,0,0,0,1.646,0Z" transform="translate(0.202 4.091)" fill="none" stroke="#4f5661" stroke-width="1"/>
        </g>
        <g id="Group_2126" data-name="Group 2126" transform="matrix(0.574, 0.819, -0.819, 0.574, 12.969, 3.768)">
          <path id="Path_809-2" data-name="Path 809" d="M1.57,2.188,1.6,2.116A2,2,0,0,0,2.8,1.769.825.825,0,0,0,2.8.343,2.241,2.241,0,0,0,.412.349.822.822,0,0,0,.486,1.812,6.794,6.794,0,0,0,1.57,2.188Z" transform="translate(0 0)" fill="none" stroke="#4f5661" stroke-width="1"/>
          <path id="Path_810-2" data-name="Path 810" d="M1.625,2.2A6.217,6.217,0,0,0,2.741,1.8.822.822,0,0,0,2.773.319,2.249,2.249,0,0,0,.425.342a.834.834,0,0,0,.093,1.5A6.965,6.965,0,0,0,1.625,2.2Z" transform="translate(0.395 8.175)" fill="none" stroke="#4f5661" stroke-width="1"/>
          <path id="Path_811-2" data-name="Path 811" d="M1.646,0A1.927,1.927,0,0,0,.386.363a.82.82,0,0,0,0,1.391A2.263,2.263,0,0,0,2.8,1.765.824.824,0,0,0,2.8.341,1.9,1.9,0,0,0,1.646,0Z" transform="translate(0.202 4.091)" fill="none" stroke="#4f5661" stroke-width="1"/>
        </g>
      </g>
    </g>
  </g>
</svg>
