<svg xmlns="http://www.w3.org/2000/svg" width="224.319" height="115.582" viewBox="0 0 224.319 115.582">
  <g id="Group_144" data-name="Group 144" transform="translate(-122.681 -51.085)">
    <g id="Group_145" data-name="Group 145">
      <g id="Group_69" data-name="Group 69" transform="translate(151.442 51.085)">
        <g id="Group_67" data-name="Group 67">
          <g id="Group_49" data-name="Group 49" transform="translate(30.425 14.259)">
            <path id="Path_103" data-name="Path 103" d="M628,86.444l7.5-.622-7.113,2.458a.946.946,0,1,1-.618-1.788A1.011,1.011,0,0,1,628,86.444Z" transform="translate(-627.137 -84.575)" fill="#eb171e"/>
            <path id="Path_104" data-name="Path 104" d="M640.114,86.2a1.246,1.246,0,1,1,.426-1.71A1.246,1.246,0,0,1,640.114,86.2Z" transform="translate(-631.104 -83.881)" fill="#eb171e"/>
          </g>
          <g id="Group_50" data-name="Group 50" transform="translate(27.885 5.858)">
            <path id="Path_105" data-name="Path 105" d="M623.37,77.69l4.228-5.168-2.818,6.053a.839.839,0,0,1-1.521-.708A.9.9,0,0,1,623.37,77.69Z" transform="translate(-623.18 -71.416)" fill="#eb171e"/>
            <path id="Path_106" data-name="Path 106" d="M630.521,72.155a1.106,1.106,0,1,1-.829-1.327A1.106,1.106,0,0,1,630.521,72.155Z" transform="translate(-625.026 -70.799)" fill="#eb171e"/>
          </g>
          <g id="Group_51" data-name="Group 51" transform="translate(13.783 4.481)">
            <path id="Path_107" data-name="Path 107" d="M603.591,75l-1.047-5.017,2.255,4.6a.644.644,0,1,1-1.157.567A.679.679,0,0,1,603.591,75Z" transform="translate(-601.695 -69.129)" fill="#eb171e"/>
            <path id="Path_108" data-name="Path 108" d="M602.739,68.982a.849.849,0,1,1-1.192-.145A.85.85,0,0,1,602.739,68.982Z" transform="translate(-601.222 -68.656)" fill="#eb171e"/>
          </g>
          <g id="Group_52" data-name="Group 52" transform="translate(11.731 28.05)">
            <path id="Path_109" data-name="Path 109" d="M603.59,106.8l-3.516,7.119,1.645-7.768a1,1,0,0,1,1.953.413A1.067,1.067,0,0,1,603.59,106.8Z" transform="translate(-598.759 -105.357)" fill="#eb171e"/>
            <path id="Path_110" data-name="Path 110" d="M598.026,117.953a1.315,1.315,0,1,1,1.315,1.315A1.315,1.315,0,0,1,598.026,117.953Z" transform="translate(-598.026 -109.393)" fill="#eb171e"/>
          </g>
          <g id="Group_53" data-name="Group 53" transform="translate(22.972 29.056)">
            <path id="Path_111" data-name="Path 111" d="M617.474,107.6l2.537,7.524-4.319-6.662a1,1,0,1,1,1.675-1.086A1.034,1.034,0,0,1,617.474,107.6Z" transform="translate(-615.531 -106.923)" fill="#eb171e"/>
            <path id="Path_112" data-name="Path 112" d="M620.843,119.893a1.315,1.315,0,1,1,1.86,0A1.315,1.315,0,0,1,620.843,119.893Z" transform="translate(-617.294 -110.761)" fill="#eb171e"/>
          </g>
          <g id="Group_54" data-name="Group 54" transform="translate(2.514 10.321)">
            <path id="Path_113" data-name="Path 113" d="M591.817,83.951l-6.2-4.261,7.065,2.594a.946.946,0,1,1-.861,1.667Z" transform="translate(-584.368 -78.443)" fill="#eb171e"/>
            <path id="Path_114" data-name="Path 114" d="M585.1,77.762a1.246,1.246,0,1,1-1.411,1.056A1.246,1.246,0,0,1,585.1,77.762Z" transform="translate(-583.674 -77.749)" fill="#eb171e"/>
          </g>
          <ellipse id="Ellipse_28" data-name="Ellipse 28" cx="12.402" cy="12.402" rx="12.402" ry="12.402" transform="translate(4.84 29.423) rotate(-76.828)" fill="#eb171e"/>
          <g id="Group_55" data-name="Group 55" transform="translate(0 21.673)">
            <path id="Path_115" data-name="Path 115" d="M589.212,97.317l-7.512.452,7.167-2.3a.946.946,0,0,1,.577,1.8A1.022,1.022,0,0,1,589.212,97.317Z" transform="translate(-580.453 -95.426)" fill="#eb171e"/>
            <path id="Path_116" data-name="Path 116" d="M580.388,97.3a1.246,1.246,0,1,1-.464,1.7A1.247,1.247,0,0,1,580.388,97.3Z" transform="translate(-579.759 -96.037)" fill="#eb171e"/>
          </g>
          <g id="Group_56" data-name="Group 56" transform="translate(6.55 26.883)">
            <path id="Path_117" data-name="Path 117" d="M597.034,105.13l-5.134,5.5,3.613-6.6a.946.946,0,0,1,1.659.909A.989.989,0,0,1,597.034,105.13Z" transform="translate(-590.653 -103.539)" fill="#eb171e"/>
            <path id="Path_118" data-name="Path 118" d="M590.011,113.53a1.246,1.246,0,1,1,.835,1.553A1.247,1.247,0,0,1,590.011,113.53Z" transform="translate(-589.958 -106.796)" fill="#eb171e"/>
          </g>
          <g id="Group_57" data-name="Group 57" transform="translate(21.879)">
            <path id="Path_119" data-name="Path 119" d="M613.858,69.837l1.77-6.437-.122,6.676a.839.839,0,1,1-1.678-.031A.867.867,0,0,1,613.858,69.837Z" transform="translate(-613.828 -62.294)" fill="#eb171e"/>
            <path id="Path_120" data-name="Path 120" d="M617.1,62.574a1.106,1.106,0,1,1-1.295-.877A1.106,1.106,0,0,1,617.1,62.574Z" transform="translate(-614.215 -61.678)" fill="#eb171e"/>
          </g>
          <g id="Group_58" data-name="Group 58" transform="translate(28.359 26.227)">
            <path id="Path_121" data-name="Path 121" d="M624.994,102.683l3.81,3.429-4.54-2.379a.644.644,0,1,1,.73-1.049Z" transform="translate(-623.918 -102.517)" fill="#eb171e"/>
            <path id="Path_122" data-name="Path 122" d="M630.823,108.458a.849.849,0,1,1,1.047-.588A.849.849,0,0,1,630.823,108.458Z" transform="translate(-626.167 -104.047)" fill="#eb171e"/>
          </g>
          <g id="Group_59" data-name="Group 59" transform="translate(28.747 23.366)">
            <path id="Path_123" data-name="Path 123" d="M626.01,98.191l6.923,3.889-7.67-2.055a1,1,0,0,1,.516-1.928A1.057,1.057,0,0,1,626.01,98.191Z" transform="translate(-624.524 -98.063)" fill="#eb171e"/>
            <path id="Path_124" data-name="Path 124" d="M636.816,104.9a1.315,1.315,0,1,1,1.383-1.243A1.315,1.315,0,0,1,636.816,104.9Z" transform="translate(-628.476 -99.568)" fill="#eb171e"/>
          </g>
          <g id="Group_60" data-name="Group 60" transform="translate(22.698 3.671)">
            <path id="Path_125" data-name="Path 125" d="M615.2,76.6l3.425-7.164-1.546,7.788a1,1,0,0,1-1.958-.389A1.068,1.068,0,0,1,615.2,76.6Z" transform="translate(-615.104 -68.126)" fill="#eb171e"/>
            <path id="Path_126" data-name="Path 126" d="M621.172,68.692a1.315,1.315,0,1,1-1.332-1.3A1.316,1.316,0,0,1,621.172,68.692Z" transform="translate(-616.334 -67.394)" fill="#eb171e"/>
          </g>
          <g id="Group_61" data-name="Group 61" transform="translate(8.555 6.181)">
            <path id="Path_127" data-name="Path 127" d="M599.514,79.281l-4.493-6.037,5.848,4.738a.946.946,0,1,1-1.191,1.469A.969.969,0,0,1,599.514,79.281Z" transform="translate(-593.774 -71.997)" fill="#eb171e"/>
            <path id="Path_128" data-name="Path 128" d="M594.894,71.44a1.246,1.246,0,1,1-1.677.543A1.246,1.246,0,0,1,594.894,71.44Z" transform="translate(-593.08 -71.303)" fill="#eb171e"/>
          </g>
          <ellipse id="Ellipse_29" data-name="Ellipse 29" cx="9.384" cy="7.846" rx="9.384" ry="7.846" transform="matrix(0.817, -0.577, 0.577, 0.817, 8.877, 20.832)" fill="#eb171e" opacity="0.2"/>
          <g id="Group_62" data-name="Group 62" transform="translate(27.778 11.188)">
            <path id="Path_129" data-name="Path 129" d="M623.725,83.431l7.6-2.285-6.8,4.1a1,1,0,0,1-1.029-1.71A1.023,1.023,0,0,1,623.725,83.431Z" transform="translate(-623.013 -79.831)" fill="#eb171e"/>
            <path id="Path_130" data-name="Path 130" d="M636.126,81.375a1.315,1.315,0,1,1,.065-1.858A1.316,1.316,0,0,1,636.126,81.375Z" transform="translate(-626.914 -79.099)" fill="#eb171e"/>
          </g>
          <g id="Group_63" data-name="Group 63" transform="translate(5.568 18.841)">
            <path id="Path_131" data-name="Path 131" d="M595.554,92.714l-5.655-.658,5.642-.762a.716.716,0,0,1,.191,1.419A.755.755,0,0,1,595.554,92.714Z" transform="translate(-588.956 -91.113)" fill="#eb171e"/>
            <path id="Path_132" data-name="Path 132" d="M589.056,91.071a.943.943,0,1,1-.571,1.2A.943.943,0,0,1,589.056,91.071Z" transform="translate(-588.43 -91.016)" fill="#eb171e"/>
          </g>
          <g id="Group_64" data-name="Group 64" transform="translate(19.22 9.171)">
            <path id="Path_133" data-name="Path 133" d="M609.868,83.061l.825-5.633.595,5.663a.715.715,0,1,1-1.423.149A.724.724,0,0,1,609.868,83.061Z" transform="translate(-609.75 -76.485)" fill="#eb171e"/>
            <path id="Path_134" data-name="Path 134" d="M611.528,76.612a.943.943,0,1,1-1.187-.607A.943.943,0,0,1,611.528,76.612Z" transform="translate(-609.688 -75.959)" fill="#eb171e"/>
          </g>
          <g id="Group_65" data-name="Group 65" transform="translate(22.065 24.507)">
            <path id="Path_135" data-name="Path 135" d="M614.927,99.956l3,2.517-3.527-1.7a.492.492,0,0,1,.426-.886A.506.506,0,0,1,614.927,99.956Z" transform="translate(-614.119 -99.84)" fill="#eb171e"/>
            <path id="Path_136" data-name="Path 136" d="M619.53,104.209a.649.649,0,1,1,.784-.476A.648.648,0,0,1,619.53,104.209Z" transform="translate(-615.878 -100.946)" fill="#eb171e"/>
          </g>
          <g id="Group_66" data-name="Group 66" transform="translate(19.028 28.421)">
            <path id="Path_137" data-name="Path 137" d="M611.279,106.84l.326,7.519-2.176-7.2a.946.946,0,0,1,1.811-.547A.956.956,0,0,1,611.279,106.84Z" transform="translate(-609.389 -105.935)" fill="#eb171e"/>
            <path id="Path_138" data-name="Path 138" d="M611.053,118.957a1.247,1.247,0,1,1,1.692.493A1.246,1.246,0,0,1,611.053,118.957Z" transform="translate(-609.929 -109.934)" fill="#eb171e"/>
          </g>
        </g>
        <g id="Group_68" data-name="Group 68" transform="translate(8.754 9.646)" opacity="0.3">
          <path id="Path_139" data-name="Path 139" d="M625.167,92.513a1.035,1.035,0,1,1,1.036,1.035A1.036,1.036,0,0,1,625.167,92.513Z" transform="translate(-604.761 -81.986)" fill="#922529" style="mix-blend-mode: multiply;isolation: isolate"/>
          <path id="Path_140" data-name="Path 140" d="M600.042,86.467a1.036,1.036,0,1,1,1.035,1.035A1.036,1.036,0,0,1,600.042,86.467Z" transform="translate(-595.771 -79.823)" fill="#922529" style="mix-blend-mode: multiply;isolation: isolate"/>
          <path id="Path_141" data-name="Path 141" d="M607.7,101.515a1.035,1.035,0,1,1,1.035,1.035A1.035,1.035,0,0,1,607.7,101.515Z" transform="translate(-598.511 -85.207)" fill="#922529" style="mix-blend-mode: multiply;isolation: isolate"/>
          <path id="Path_142" data-name="Path 142" d="M620.465,81.736a.6.6,0,1,1,.6.6A.6.6,0,0,1,620.465,81.736Z" transform="translate(-603.078 -78.285)" fill="#922529" style="mix-blend-mode: multiply;isolation: isolate"/>
          <path id="Path_143" data-name="Path 143" d="M603.8,107.533a.6.6,0,1,1,.6.6A.6.6,0,0,1,603.8,107.533Z" transform="translate(-597.117 -87.515)" fill="#922529" style="mix-blend-mode: multiply;isolation: isolate"/>
          <path id="Path_144" data-name="Path 144" d="M603.67,97.993a.6.6,0,1,1,.6.6A.6.6,0,0,1,603.67,97.993Z" transform="translate(-597.069 -84.101)" fill="#922529" style="mix-blend-mode: multiply;isolation: isolate"/>
          <path id="Path_145" data-name="Path 145" d="M621.4,98.262a.6.6,0,1,1,.6.6A.6.6,0,0,1,621.4,98.262Z" transform="translate(-603.415 -84.198)" fill="#922529" style="mix-blend-mode: multiply;isolation: isolate"/>
          <ellipse id="Ellipse_30" data-name="Ellipse 30" cx="0.604" cy="0.604" rx="0.604" ry="0.604" transform="translate(16.179 19.069)" fill="#922529" style="mix-blend-mode: multiply;isolation: isolate"/>
          <path id="Path_146" data-name="Path 146" d="M596.952,82.676a.6.6,0,1,1,.6.6A.6.6,0,0,1,596.952,82.676Z" transform="translate(-594.665 -78.621)" fill="#922529" style="mix-blend-mode: multiply;isolation: isolate"/>
          <path id="Path_147" data-name="Path 147" d="M604.476,77.3a.6.6,0,1,1,.6.6A.6.6,0,0,1,604.476,77.3Z" transform="translate(-597.357 -76.698)" fill="#922529" style="mix-blend-mode: multiply;isolation: isolate"/>
          <path id="Path_148" data-name="Path 148" d="M616.971,90.2a.6.6,0,1,1,.6.6A.6.6,0,0,1,616.971,90.2Z" transform="translate(-601.828 -81.313)" fill="#922529" style="mix-blend-mode: multiply;isolation: isolate"/>
          <path id="Path_149" data-name="Path 149" d="M615.561,85.532a.3.3,0,1,1,.3.3A.3.3,0,0,1,615.561,85.532Z" transform="translate(-601.324 -79.751)" fill="#922529" style="mix-blend-mode: multiply;isolation: isolate"/>
          <path id="Path_150" data-name="Path 150" d="M619.188,86.2a.3.3,0,1,1,.3.3A.3.3,0,0,1,619.188,86.2Z" transform="translate(-602.621 -79.991)" fill="#922529" style="mix-blend-mode: multiply;isolation: isolate"/>
          <path id="Path_151" data-name="Path 151" d="M602.662,93.459a.3.3,0,1,1,.3.3A.3.3,0,0,1,602.662,93.459Z" transform="translate(-596.708 -82.587)" fill="#922529" style="mix-blend-mode: multiply;isolation: isolate"/>
          <path id="Path_152" data-name="Path 152" d="M606.223,84.86a.3.3,0,1,1,.3.3A.3.3,0,0,1,606.223,84.86Z" transform="translate(-597.982 -79.51)" fill="#922529" style="mix-blend-mode: multiply;isolation: isolate"/>
          <path id="Path_153" data-name="Path 153" d="M616.232,95.743a.3.3,0,1,1,.3.3A.3.3,0,0,1,616.232,95.743Z" transform="translate(-601.564 -83.404)" fill="#922529" style="mix-blend-mode: multiply;isolation: isolate"/>
          <path id="Path_154" data-name="Path 154" d="M621.943,93.66a.3.3,0,1,1,.3.3A.3.3,0,0,1,621.943,93.66Z" transform="translate(-603.607 -82.659)" fill="#922529" style="mix-blend-mode: multiply;isolation: isolate"/>
          <path id="Path_155" data-name="Path 155" d="M615.09,105.753a.3.3,0,1,1,.3.3A.3.3,0,0,1,615.09,105.753Z" transform="translate(-601.155 -86.986)" fill="#922529" style="mix-blend-mode: multiply;isolation: isolate"/>
          <path id="Path_156" data-name="Path 156" d="M598.295,97.826a.3.3,0,1,1,.3.3A.3.3,0,0,1,598.295,97.826Z" transform="translate(-595.146 -84.15)" fill="#922529" style="mix-blend-mode: multiply;isolation: isolate"/>
          <path id="Path_157" data-name="Path 157" d="M595.138,87.547a.3.3,0,1,1,.3.3A.3.3,0,0,1,595.138,87.547Z" transform="translate(-594.016 -80.472)" fill="#922529" style="mix-blend-mode: multiply;isolation: isolate"/>
          <path id="Path_158" data-name="Path 158" d="M602.192,104.006a.3.3,0,1,1,.3.3A.3.3,0,0,1,602.192,104.006Z" transform="translate(-596.54 -86.361)" fill="#922529" style="mix-blend-mode: multiply;isolation: isolate"/>
          <path id="Path_159" data-name="Path 159" d="M593.391,93.66a.3.3,0,1,1,.3.3A.3.3,0,0,1,593.391,93.66Z" transform="translate(-593.391 -82.659)" fill="#922529" style="mix-blend-mode: multiply;isolation: isolate"/>
          <path id="Path_160" data-name="Path 160" d="M607.9,110.321a.3.3,0,1,1,.3.3A.3.3,0,0,1,607.9,110.321Z" transform="translate(-598.583 -88.621)" fill="#922529" style="mix-blend-mode: multiply;isolation: isolate"/>
          <path id="Path_161" data-name="Path 161" d="M626.041,89.562a.3.3,0,1,1,.3.3A.3.3,0,0,1,626.041,89.562Z" transform="translate(-605.074 -81.193)" fill="#922529" style="mix-blend-mode: multiply;isolation: isolate"/>
          <path id="Path_162" data-name="Path 162" d="M596.549,101.083a.6.6,0,1,1,.6.6A.6.6,0,0,1,596.549,101.083Z" transform="translate(-594.521 -85.207)" fill="#922529" style="mix-blend-mode: multiply;isolation: isolate"/>
          <path id="Path_163" data-name="Path 163" d="M608.91,92.455a1.38,1.38,0,1,1,1.381,1.381A1.381,1.381,0,0,1,608.91,92.455Z" transform="translate(-598.944 -81.842)" fill="#922529" style="mix-blend-mode: multiply;isolation: isolate"/>
        </g>
      </g>
      <g id="Group_138" data-name="Group 138" transform="translate(122.681 89.659)">
        <g id="Group_67-2" data-name="Group 67" transform="translate(0 0)">
          <g id="Group_49-2" data-name="Group 49" transform="translate(30.767 14.418)">
            <path id="Path_103-2" data-name="Path 103" d="M628.014,86.451l7.584-.629-7.193,2.486a.956.956,0,1,1-.625-1.808A1.023,1.023,0,0,1,628.014,86.451Z" transform="translate(-627.137 -84.561)"/>
            <path id="Path_104-2" data-name="Path 104" d="M640.136,86.221a1.26,1.26,0,1,1,.431-1.729A1.26,1.26,0,0,1,640.136,86.221Z" transform="translate(-631.025 -83.881)"/>
          </g>
          <g id="Group_50-2" data-name="Group 50" transform="translate(28.197 5.924)">
            <path id="Path_105-2" data-name="Path 105" d="M623.372,77.748l4.276-5.226-2.85,6.121a.848.848,0,1,1-1.538-.716A.906.906,0,0,1,623.372,77.748Z" transform="translate(-623.18 -71.403)"/>
            <path id="Path_106-2" data-name="Path 106" d="M630.546,72.17a1.118,1.118,0,1,1-.838-1.342A1.119,1.119,0,0,1,630.546,72.17Z" transform="translate(-624.989 -70.799)"/>
          </g>
          <g id="Group_51-2" data-name="Group 51" transform="translate(13.938 4.532)">
            <path id="Path_107-2" data-name="Path 107" d="M603.6,75.052l-1.058-5.074,2.281,4.654a.651.651,0,1,1-1.169.573A.688.688,0,0,1,603.6,75.052Z" transform="translate(-601.685 -69.119)"/>
            <path id="Path_108-2" data-name="Path 108" d="M602.756,68.985a.858.858,0,1,1-1.205-.147A.859.859,0,0,1,602.756,68.985Z" transform="translate(-601.222 -68.656)"/>
          </g>
          <g id="Group_52-2" data-name="Group 52" transform="translate(11.862 28.365)">
            <path id="Path_109-2" data-name="Path 109" d="M603.629,106.814l-3.555,7.2,1.663-7.855a1.009,1.009,0,0,1,1.975.418A1.069,1.069,0,0,1,603.629,106.814Z" transform="translate(-598.744 -105.357)"/>
            <path id="Path_110-2" data-name="Path 110" d="M598.026,117.968a1.33,1.33,0,1,1,1.33,1.33A1.33,1.33,0,0,1,598.026,117.968Z" transform="translate(-598.026 -109.312)"/>
          </g>
          <g id="Group_53-2" data-name="Group 53" transform="translate(23.23 29.382)">
            <path id="Path_111-2" data-name="Path 111" d="M617.5,107.61l2.565,7.608-4.368-6.737a1.009,1.009,0,1,1,1.694-1.1A1.042,1.042,0,0,1,617.5,107.61Z" transform="translate(-615.531 -106.923)"/>
            <path id="Path_112-2" data-name="Path 112" d="M620.847,119.918a1.33,1.33,0,1,1,1.881,0A1.329,1.329,0,0,1,620.847,119.918Z" transform="translate(-617.259 -110.684)"/>
          </g>
          <g id="Group_54-2" data-name="Group 54" transform="translate(2.542 10.437)">
            <path id="Path_113-2" data-name="Path 113" d="M591.887,84l-6.273-4.309,7.144,2.623A.956.956,0,1,1,591.887,84Z" transform="translate(-584.354 -78.429)"/>
            <path id="Path_114-2" data-name="Path 114" d="M585.114,77.762a1.26,1.26,0,1,1-1.427,1.068A1.26,1.26,0,0,1,585.114,77.762Z" transform="translate(-583.674 -77.749)"/>
          </g>
          <ellipse id="Ellipse_28-2" data-name="Ellipse 28" cx="12.541" cy="12.541" rx="12.541" ry="12.541" transform="translate(4.894 29.753) rotate(-76.828)"/>
          <g id="Group_55-2" data-name="Group 55" transform="translate(0 21.916)">
            <path id="Path_115-2" data-name="Path 115" d="M589.3,97.338l-7.6.457,7.247-2.323a.957.957,0,0,1,.584,1.822A1.034,1.034,0,0,1,589.3,97.338Z" transform="translate(-580.44 -95.426)"/>
            <path id="Path_116-2" data-name="Path 116" d="M580.395,97.3a1.26,1.26,0,1,1-.47,1.72A1.261,1.261,0,0,1,580.395,97.3Z" transform="translate(-579.759 -96.025)"/>
          </g>
          <g id="Group_56-2" data-name="Group 56" transform="translate(6.623 27.184)">
            <path id="Path_117-2" data-name="Path 117" d="M597.092,105.148l-5.192,5.563,3.653-6.676a.957.957,0,0,1,1.678.919A1,1,0,0,1,597.092,105.148Z" transform="translate(-590.639 -103.539)"/>
            <path id="Path_118-2" data-name="Path 118" d="M590.012,113.54a1.26,1.26,0,1,1,.844,1.57A1.261,1.261,0,0,1,590.012,113.54Z" transform="translate(-589.958 -106.731)"/>
          </g>
          <g id="Group_57-2" data-name="Group 57" transform="translate(22.124)">
            <path id="Path_119-2" data-name="Path 119" d="M613.858,69.909l1.79-6.509-.123,6.75a.849.849,0,1,1-1.7-.031A.874.874,0,0,1,613.858,69.909Z" transform="translate(-613.828 -62.281)"/>
            <path id="Path_120-2" data-name="Path 120" d="M617.125,62.584a1.118,1.118,0,1,1-1.309-.886A1.118,1.118,0,0,1,617.125,62.584Z" transform="translate(-614.207 -61.678)"/>
          </g>
          <g id="Group_58-2" data-name="Group 58" transform="translate(28.676 26.521)">
            <path id="Path_121-2" data-name="Path 121" d="M625.006,102.685l3.853,3.467-4.591-2.406a.651.651,0,1,1,.738-1.061Z" transform="translate(-623.918 -102.517)"/>
            <path id="Path_122-2" data-name="Path 122" d="M630.83,108.476a.858.858,0,1,1,1.059-.594A.858.858,0,0,1,630.83,108.476Z" transform="translate(-626.122 -104.016)"/>
          </g>
          <g id="Group_59-2" data-name="Group 59" transform="translate(29.07 23.628)">
            <path id="Path_123-2" data-name="Path 123" d="M626.027,98.192l7,3.933-7.756-2.078a1.009,1.009,0,1,1,.522-1.949A1.067,1.067,0,0,1,626.027,98.192Z" transform="translate(-624.524 -98.063)"/>
            <path id="Path_124-2" data-name="Path 124" d="M636.83,104.928a1.33,1.33,0,1,1,1.4-1.257A1.33,1.33,0,0,1,636.83,104.928Z" transform="translate(-628.397 -99.538)"/>
          </g>
          <g id="Group_60-2" data-name="Group 60" transform="translate(22.953 3.712)">
            <path id="Path_125-2" data-name="Path 125" d="M615.2,76.685l3.463-7.244L617.1,77.317a1.009,1.009,0,0,1-1.98-.393A1.081,1.081,0,0,1,615.2,76.685Z" transform="translate(-615.104 -68.112)"/>
            <path id="Path_126-2" data-name="Path 126" d="M621.2,68.706a1.33,1.33,0,1,1-1.347-1.312A1.331,1.331,0,0,1,621.2,68.706Z" transform="translate(-616.309 -67.394)"/>
          </g>
          <g id="Group_61-2" data-name="Group 61" transform="translate(8.65 6.251)">
            <path id="Path_127-2" data-name="Path 127" d="M599.565,79.349l-4.544-6.1,5.913,4.791a.956.956,0,1,1-1.2,1.486A.977.977,0,0,1,599.565,79.349Z" transform="translate(-593.76 -71.984)"/>
            <path id="Path_128-2" data-name="Path 128" d="M594.914,71.441a1.26,1.26,0,1,1-1.7.549A1.26,1.26,0,0,1,594.914,71.441Z" transform="translate(-593.08 -71.303)"/>
          </g>
          <ellipse id="Ellipse_29-2" data-name="Ellipse 29" cx="9.489" cy="7.934" rx="9.489" ry="7.934" transform="matrix(0.817, -0.577, 0.577, 0.817, 8.977, 21.065)" opacity="0.2"/>
          <g id="Group_62-2" data-name="Group 62" transform="translate(28.089 11.313)">
            <path id="Path_129-2" data-name="Path 129" d="M623.733,83.457l7.689-2.311-6.879,4.141a1.009,1.009,0,0,1-1.041-1.729A1.035,1.035,0,0,1,623.733,83.457Z" transform="translate(-623.014 -79.816)"/>
            <path id="Path_130-2" data-name="Path 130" d="M636.151,81.4a1.33,1.33,0,1,1,.066-1.879A1.331,1.331,0,0,1,636.151,81.4Z" transform="translate(-626.835 -79.099)"/>
          </g>
          <g id="Group_63-2" data-name="Group 63" transform="translate(5.631 19.052)">
            <path id="Path_131-2" data-name="Path 131" d="M595.618,92.73l-5.719-.666,5.705-.771a.724.724,0,0,1,.194,1.434A.763.763,0,0,1,595.618,92.73Z" transform="translate(-588.945 -91.111)"/>
            <path id="Path_132-2" data-name="Path 132" d="M589.063,91.072a.953.953,0,1,1-.577,1.218A.954.954,0,0,1,589.063,91.072Z" transform="translate(-588.43 -91.016)"/>
          </g>
          <g id="Group_64-2" data-name="Group 64" transform="translate(19.436 9.274)">
            <path id="Path_133-2" data-name="Path 133" d="M609.868,83.124l.834-5.7.6,5.726a.723.723,0,1,1-1.439.151A.734.734,0,0,1,609.868,83.124Z" transform="translate(-609.748 -76.474)"/>
            <path id="Path_134-2" data-name="Path 134" d="M611.549,76.619a.953.953,0,1,1-1.2-.614A.953.953,0,0,1,611.549,76.619Z" transform="translate(-609.688 -75.959)"/>
          </g>
          <g id="Group_65-2" data-name="Group 65" transform="translate(22.313 24.782)">
            <path id="Path_135-2" data-name="Path 135" d="M614.936,99.957l3.031,2.546-3.566-1.717a.5.5,0,0,1,.431-.9A.512.512,0,0,1,614.936,99.957Z" transform="translate(-614.119 -99.84)"/>
            <path id="Path_136-2" data-name="Path 136" d="M619.535,104.223a.656.656,0,1,1,.793-.481A.656.656,0,0,1,619.535,104.223Z" transform="translate(-615.843 -100.923)"/>
          </g>
          <g id="Group_66-2" data-name="Group 66" transform="translate(19.241 28.74)">
            <path id="Path_137-2" data-name="Path 137" d="M611.3,106.85l.329,7.6-2.2-7.285a.956.956,0,1,1,1.871-.318Z" transform="translate(-609.389 -105.935)"/>
            <path id="Path_138-2" data-name="Path 138" d="M611.055,118.978a1.26,1.26,0,1,1,1.711.5A1.26,1.26,0,0,1,611.055,118.978Z" transform="translate(-609.918 -109.853)"/>
          </g>
        </g>
        <g id="Group_68-2" data-name="Group 68" transform="translate(8.852 9.754)" opacity="0.3">
          <path id="Path_139-2" data-name="Path 139" d="M625.167,92.524a1.047,1.047,0,1,1,1.047,1.047A1.047,1.047,0,0,1,625.167,92.524Z" transform="translate(-604.532 -81.88)" style="mix-blend-mode: multiply;isolation: isolate"/>
          <path id="Path_140-2" data-name="Path 140" d="M600.042,86.478a1.047,1.047,0,1,1,1.047,1.047A1.047,1.047,0,0,1,600.042,86.478Z" transform="translate(-595.723 -79.76)" style="mix-blend-mode: multiply;isolation: isolate"/>
          <path id="Path_141-2" data-name="Path 141" d="M607.7,101.526a1.047,1.047,0,1,1,1.047,1.047A1.047,1.047,0,0,1,607.7,101.526Z" transform="translate(-598.408 -85.036)" style="mix-blend-mode: multiply;isolation: isolate"/>
          <path id="Path_142-2" data-name="Path 142" d="M620.465,81.742a.611.611,0,1,1,.61.611A.611.611,0,0,1,620.465,81.742Z" transform="translate(-602.883 -78.253)" style="mix-blend-mode: multiply;isolation: isolate"/>
          <path id="Path_143-2" data-name="Path 143" d="M603.8,107.539a.611.611,0,1,1,.611.611A.611.611,0,0,1,603.8,107.539Z" transform="translate(-597.042 -87.297)" style="mix-blend-mode: multiply;isolation: isolate"/>
          <path id="Path_144-2" data-name="Path 144" d="M603.67,98a.611.611,0,1,1,.61.61A.611.611,0,0,1,603.67,98Z" transform="translate(-596.995 -83.953)" style="mix-blend-mode: multiply;isolation: isolate"/>
          <path id="Path_145-2" data-name="Path 145" d="M621.405,98.268a.611.611,0,1,1,.611.611A.611.611,0,0,1,621.405,98.268Z" transform="translate(-603.213 -84.047)" style="mix-blend-mode: multiply;isolation: isolate"/>
          <ellipse id="Ellipse_30-2" data-name="Ellipse 30" cx="0.611" cy="0.611" rx="0.611" ry="0.611" transform="translate(16.36 19.283)" style="mix-blend-mode: multiply;isolation: isolate"/>
          <path id="Path_146-2" data-name="Path 146" d="M596.952,82.683a.611.611,0,1,1,.61.61A.611.611,0,0,1,596.952,82.683Z" transform="translate(-594.64 -78.582)" style="mix-blend-mode: multiply;isolation: isolate"/>
          <path id="Path_147-2" data-name="Path 147" d="M604.476,77.308a.611.611,0,1,1,.61.611A.611.611,0,0,1,604.476,77.308Z" transform="translate(-597.278 -76.698)" style="mix-blend-mode: multiply;isolation: isolate"/>
          <path id="Path_148-2" data-name="Path 148" d="M616.971,90.207a.611.611,0,1,1,.611.61A.611.611,0,0,1,616.971,90.207Z" transform="translate(-601.659 -81.22)" style="mix-blend-mode: multiply;isolation: isolate"/>
          <path id="Path_149-2" data-name="Path 149" d="M615.561,85.535a.305.305,0,1,1,.305.305A.3.3,0,0,1,615.561,85.535Z" transform="translate(-601.164 -79.689)" style="mix-blend-mode: multiply;isolation: isolate"/>
          <path id="Path_150-2" data-name="Path 150" d="M619.188,86.207a.306.306,0,1,1,.306.305A.306.306,0,0,1,619.188,86.207Z" transform="translate(-602.436 -79.925)" style="mix-blend-mode: multiply;isolation: isolate"/>
          <path id="Path_151-2" data-name="Path 151" d="M602.662,93.462a.306.306,0,1,1,.305.305A.305.305,0,0,1,602.662,93.462Z" transform="translate(-596.642 -82.469)" style="mix-blend-mode: multiply;isolation: isolate"/>
          <path id="Path_152-2" data-name="Path 152" d="M606.223,84.863a.305.305,0,1,1,.305.305A.3.3,0,0,1,606.223,84.863Z" transform="translate(-597.89 -79.454)" style="mix-blend-mode: multiply;isolation: isolate"/>
          <path id="Path_153-2" data-name="Path 153" d="M616.232,95.746a.306.306,0,1,1,.306.306A.306.306,0,0,1,616.232,95.746Z" transform="translate(-601.399 -83.27)" style="mix-blend-mode: multiply;isolation: isolate"/>
          <path id="Path_154-2" data-name="Path 154" d="M621.943,93.664a.305.305,0,1,1,.305.305A.305.305,0,0,1,621.943,93.664Z" transform="translate(-603.402 -82.539)" style="mix-blend-mode: multiply;isolation: isolate"/>
          <path id="Path_155-2" data-name="Path 155" d="M615.09,105.756a.306.306,0,1,1,.306.305A.305.305,0,0,1,615.09,105.756Z" transform="translate(-600.999 -86.779)" style="mix-blend-mode: multiply;isolation: isolate"/>
          <path id="Path_156-2" data-name="Path 156" d="M598.295,97.829a.306.306,0,1,1,.306.305A.305.305,0,0,1,598.295,97.829Z" transform="translate(-595.11 -84)" style="mix-blend-mode: multiply;isolation: isolate"/>
          <path id="Path_157-2" data-name="Path 157" d="M595.138,87.55a.305.305,0,1,1,.305.306A.305.305,0,0,1,595.138,87.55Z" transform="translate(-594.004 -80.396)" style="mix-blend-mode: multiply;isolation: isolate"/>
          <path id="Path_158-2" data-name="Path 158" d="M602.192,104.009a.305.305,0,1,1,.305.306A.305.305,0,0,1,602.192,104.009Z" transform="translate(-596.477 -86.167)" style="mix-blend-mode: multiply;isolation: isolate"/>
          <path id="Path_159-2" data-name="Path 159" d="M593.391,93.664a.306.306,0,1,1,.305.305A.306.306,0,0,1,593.391,93.664Z" transform="translate(-593.391 -82.539)" style="mix-blend-mode: multiply;isolation: isolate"/>
          <path id="Path_160-2" data-name="Path 160" d="M607.9,110.324a.306.306,0,1,1,.305.306A.306.306,0,0,1,607.9,110.324Z" transform="translate(-598.479 -88.381)" style="mix-blend-mode: multiply;isolation: isolate"/>
          <path id="Path_161-2" data-name="Path 161" d="M626.041,89.566a.305.305,0,1,1,.305.305A.305.305,0,0,1,626.041,89.566Z" transform="translate(-604.839 -81.102)" style="mix-blend-mode: multiply;isolation: isolate"/>
          <path id="Path_162-2" data-name="Path 162" d="M596.549,101.09a.611.611,0,1,1,.61.611A.611.611,0,0,1,596.549,101.09Z" transform="translate(-594.498 -85.036)" style="mix-blend-mode: multiply;isolation: isolate"/>
          <path id="Path_163-2" data-name="Path 163" d="M608.91,92.47a1.4,1.4,0,1,1,1.4,1.4A1.4,1.4,0,0,1,608.91,92.47Z" transform="translate(-598.832 -81.738)" style="mix-blend-mode: multiply;isolation: isolate"/>
        </g>
      </g>
      <g id="Group_149" data-name="Group 149" transform="translate(151.682 127.659)">
        <g id="Group_67-3" data-name="Group 67" transform="translate(0 0)">
          <g id="Group_49-3" data-name="Group 49" transform="translate(30.767 14.418)">
            <path id="Path_103-3" data-name="Path 103" d="M628.014,86.451l7.584-.629-7.193,2.486a.956.956,0,1,1-.625-1.808A1.023,1.023,0,0,1,628.014,86.451Z" transform="translate(-627.137 -84.561)" fill="#85c226"/>
            <path id="Path_104-3" data-name="Path 104" d="M640.136,86.221a1.26,1.26,0,1,1,.431-1.729A1.26,1.26,0,0,1,640.136,86.221Z" transform="translate(-631.025 -83.881)" fill="#85c226"/>
          </g>
          <g id="Group_50-3" data-name="Group 50" transform="translate(28.197 5.924)">
            <path id="Path_105-3" data-name="Path 105" d="M623.372,77.748l4.276-5.226-2.85,6.121a.848.848,0,1,1-1.538-.716A.906.906,0,0,1,623.372,77.748Z" transform="translate(-623.18 -71.403)" fill="#85c226"/>
            <path id="Path_106-3" data-name="Path 106" d="M630.546,72.17a1.118,1.118,0,1,1-.838-1.342A1.119,1.119,0,0,1,630.546,72.17Z" transform="translate(-624.989 -70.799)" fill="#85c226"/>
          </g>
          <g id="Group_51-3" data-name="Group 51" transform="translate(13.938 4.532)">
            <path id="Path_107-3" data-name="Path 107" d="M603.6,75.052l-1.058-5.074,2.281,4.654a.651.651,0,1,1-1.169.573A.688.688,0,0,1,603.6,75.052Z" transform="translate(-601.685 -69.119)" fill="#85c226"/>
            <path id="Path_108-3" data-name="Path 108" d="M602.756,68.985a.858.858,0,1,1-1.205-.147A.859.859,0,0,1,602.756,68.985Z" transform="translate(-601.222 -68.656)" fill="#85c226"/>
          </g>
          <g id="Group_52-3" data-name="Group 52" transform="translate(11.862 28.365)">
            <path id="Path_109-3" data-name="Path 109" d="M603.629,106.814l-3.555,7.2,1.663-7.855a1.009,1.009,0,0,1,1.975.418A1.069,1.069,0,0,1,603.629,106.814Z" transform="translate(-598.744 -105.357)" fill="#85c226"/>
            <path id="Path_110-3" data-name="Path 110" d="M598.026,117.968a1.33,1.33,0,1,1,1.33,1.33A1.33,1.33,0,0,1,598.026,117.968Z" transform="translate(-598.026 -109.312)" fill="#85c226"/>
          </g>
          <g id="Group_53-3" data-name="Group 53" transform="translate(23.23 29.382)">
            <path id="Path_111-3" data-name="Path 111" d="M617.5,107.61l2.565,7.608-4.368-6.737a1.009,1.009,0,1,1,1.694-1.1A1.042,1.042,0,0,1,617.5,107.61Z" transform="translate(-615.531 -106.923)" fill="#85c226"/>
            <path id="Path_112-3" data-name="Path 112" d="M620.847,119.918a1.33,1.33,0,1,1,1.881,0A1.329,1.329,0,0,1,620.847,119.918Z" transform="translate(-617.259 -110.684)" fill="#85c226"/>
          </g>
          <g id="Group_54-3" data-name="Group 54" transform="translate(2.542 10.437)">
            <path id="Path_113-3" data-name="Path 113" d="M591.887,84l-6.273-4.309,7.144,2.623A.956.956,0,1,1,591.887,84Z" transform="translate(-584.354 -78.429)" fill="#85c226"/>
            <path id="Path_114-3" data-name="Path 114" d="M585.114,77.762a1.26,1.26,0,1,1-1.427,1.068A1.26,1.26,0,0,1,585.114,77.762Z" transform="translate(-583.674 -77.749)" fill="#85c226"/>
          </g>
          <ellipse id="Ellipse_28-3" data-name="Ellipse 28" cx="12.541" cy="12.541" rx="12.541" ry="12.541" transform="translate(4.894 29.753) rotate(-76.828)" fill="#85c226"/>
          <g id="Group_55-3" data-name="Group 55" transform="translate(0 21.916)">
            <path id="Path_115-3" data-name="Path 115" d="M589.3,97.338l-7.6.457,7.247-2.323a.957.957,0,0,1,.584,1.822A1.034,1.034,0,0,1,589.3,97.338Z" transform="translate(-580.44 -95.426)" fill="#85c226"/>
            <path id="Path_116-3" data-name="Path 116" d="M580.395,97.3a1.26,1.26,0,1,1-.47,1.72A1.261,1.261,0,0,1,580.395,97.3Z" transform="translate(-579.759 -96.025)" fill="#85c226"/>
          </g>
          <g id="Group_56-3" data-name="Group 56" transform="translate(6.623 27.184)">
            <path id="Path_117-3" data-name="Path 117" d="M597.092,105.148l-5.192,5.563,3.653-6.676a.957.957,0,0,1,1.678.919A1,1,0,0,1,597.092,105.148Z" transform="translate(-590.639 -103.539)" fill="#85c226"/>
            <path id="Path_118-3" data-name="Path 118" d="M590.012,113.54a1.26,1.26,0,1,1,.844,1.57A1.261,1.261,0,0,1,590.012,113.54Z" transform="translate(-589.958 -106.731)" fill="#85c226"/>
          </g>
          <g id="Group_57-3" data-name="Group 57" transform="translate(22.124)">
            <path id="Path_119-3" data-name="Path 119" d="M613.858,69.909l1.79-6.509-.123,6.75a.849.849,0,1,1-1.7-.031A.874.874,0,0,1,613.858,69.909Z" transform="translate(-613.828 -62.281)" fill="#85c226"/>
            <path id="Path_120-3" data-name="Path 120" d="M617.125,62.584a1.118,1.118,0,1,1-1.309-.886A1.118,1.118,0,0,1,617.125,62.584Z" transform="translate(-614.207 -61.678)" fill="#85c226"/>
          </g>
          <g id="Group_58-3" data-name="Group 58" transform="translate(28.676 26.521)">
            <path id="Path_121-3" data-name="Path 121" d="M625.006,102.685l3.853,3.467-4.591-2.406a.651.651,0,1,1,.738-1.061Z" transform="translate(-623.918 -102.517)" fill="#85c226"/>
            <path id="Path_122-3" data-name="Path 122" d="M630.83,108.476a.858.858,0,1,1,1.059-.594A.858.858,0,0,1,630.83,108.476Z" transform="translate(-626.122 -104.016)" fill="#85c226"/>
          </g>
          <g id="Group_59-3" data-name="Group 59" transform="translate(29.07 23.628)">
            <path id="Path_123-3" data-name="Path 123" d="M626.027,98.192l7,3.933-7.756-2.078a1.009,1.009,0,1,1,.522-1.949A1.067,1.067,0,0,1,626.027,98.192Z" transform="translate(-624.524 -98.063)" fill="#85c226"/>
            <path id="Path_124-3" data-name="Path 124" d="M636.83,104.928a1.33,1.33,0,1,1,1.4-1.257A1.33,1.33,0,0,1,636.83,104.928Z" transform="translate(-628.397 -99.538)" fill="#85c226"/>
          </g>
          <g id="Group_60-3" data-name="Group 60" transform="translate(22.953 3.712)">
            <path id="Path_125-3" data-name="Path 125" d="M615.2,76.685l3.463-7.244L617.1,77.317a1.009,1.009,0,0,1-1.98-.393A1.081,1.081,0,0,1,615.2,76.685Z" transform="translate(-615.104 -68.112)" fill="#85c226"/>
            <path id="Path_126-3" data-name="Path 126" d="M621.2,68.706a1.33,1.33,0,1,1-1.347-1.312A1.331,1.331,0,0,1,621.2,68.706Z" transform="translate(-616.309 -67.394)" fill="#85c226"/>
          </g>
          <g id="Group_61-3" data-name="Group 61" transform="translate(8.65 6.251)">
            <path id="Path_127-3" data-name="Path 127" d="M599.565,79.349l-4.544-6.1,5.913,4.791a.956.956,0,1,1-1.2,1.486A.977.977,0,0,1,599.565,79.349Z" transform="translate(-593.76 -71.984)" fill="#85c226"/>
            <path id="Path_128-3" data-name="Path 128" d="M594.914,71.441a1.26,1.26,0,1,1-1.7.549A1.26,1.26,0,0,1,594.914,71.441Z" transform="translate(-593.08 -71.303)" fill="#85c226"/>
          </g>
          <ellipse id="Ellipse_29-3" data-name="Ellipse 29" cx="9.489" cy="7.934" rx="9.489" ry="7.934" transform="matrix(0.817, -0.577, 0.577, 0.817, 8.977, 21.065)" fill="#85c226" opacity="0.2"/>
          <g id="Group_62-3" data-name="Group 62" transform="translate(28.089 11.313)">
            <path id="Path_129-3" data-name="Path 129" d="M623.733,83.457l7.689-2.311-6.879,4.141a1.009,1.009,0,0,1-1.041-1.729A1.035,1.035,0,0,1,623.733,83.457Z" transform="translate(-623.014 -79.816)" fill="#85c226"/>
            <path id="Path_130-3" data-name="Path 130" d="M636.151,81.4a1.33,1.33,0,1,1,.066-1.879A1.331,1.331,0,0,1,636.151,81.4Z" transform="translate(-626.835 -79.099)" fill="#85c226"/>
          </g>
          <g id="Group_63-3" data-name="Group 63" transform="translate(5.631 19.052)">
            <path id="Path_131-3" data-name="Path 131" d="M595.618,92.73l-5.719-.666,5.705-.771a.724.724,0,0,1,.194,1.434A.763.763,0,0,1,595.618,92.73Z" transform="translate(-588.945 -91.111)" fill="#85c226"/>
            <path id="Path_132-3" data-name="Path 132" d="M589.063,91.072a.953.953,0,1,1-.577,1.218A.954.954,0,0,1,589.063,91.072Z" transform="translate(-588.43 -91.016)" fill="#85c226"/>
          </g>
          <g id="Group_64-3" data-name="Group 64" transform="translate(19.436 9.274)">
            <path id="Path_133-3" data-name="Path 133" d="M609.868,83.124l.834-5.7.6,5.726a.723.723,0,1,1-1.439.151A.734.734,0,0,1,609.868,83.124Z" transform="translate(-609.748 -76.474)" fill="#85c226"/>
            <path id="Path_134-3" data-name="Path 134" d="M611.549,76.619a.953.953,0,1,1-1.2-.614A.953.953,0,0,1,611.549,76.619Z" transform="translate(-609.688 -75.959)" fill="#85c226"/>
          </g>
          <g id="Group_65-3" data-name="Group 65" transform="translate(22.313 24.782)">
            <path id="Path_135-3" data-name="Path 135" d="M614.936,99.957l3.031,2.546-3.566-1.717a.5.5,0,0,1,.431-.9A.512.512,0,0,1,614.936,99.957Z" transform="translate(-614.119 -99.84)" fill="#85c226"/>
            <path id="Path_136-3" data-name="Path 136" d="M619.535,104.223a.656.656,0,1,1,.793-.481A.656.656,0,0,1,619.535,104.223Z" transform="translate(-615.843 -100.923)" fill="#85c226"/>
          </g>
          <g id="Group_66-3" data-name="Group 66" transform="translate(19.241 28.74)">
            <path id="Path_137-3" data-name="Path 137" d="M611.3,106.85l.329,7.6-2.2-7.285a.956.956,0,1,1,1.871-.318Z" transform="translate(-609.389 -105.935)" fill="#85c226"/>
            <path id="Path_138-3" data-name="Path 138" d="M611.055,118.978a1.26,1.26,0,1,1,1.711.5A1.26,1.26,0,0,1,611.055,118.978Z" transform="translate(-609.918 -109.853)" fill="#85c226"/>
          </g>
        </g>
        <g id="Group_68-3" data-name="Group 68" transform="translate(8.852 9.754)" opacity="0.3">
          <path id="Path_139-3" data-name="Path 139" d="M625.167,92.524a1.047,1.047,0,1,1,1.047,1.047A1.047,1.047,0,0,1,625.167,92.524Z" transform="translate(-604.532 -81.88)" fill="#85c226" style="mix-blend-mode: multiply;isolation: isolate"/>
          <path id="Path_140-3" data-name="Path 140" d="M600.042,86.478a1.047,1.047,0,1,1,1.047,1.047A1.047,1.047,0,0,1,600.042,86.478Z" transform="translate(-595.723 -79.76)" fill="#85c226" style="mix-blend-mode: multiply;isolation: isolate"/>
          <path id="Path_141-3" data-name="Path 141" d="M607.7,101.526a1.047,1.047,0,1,1,1.047,1.047A1.047,1.047,0,0,1,607.7,101.526Z" transform="translate(-598.408 -85.036)" fill="#85c226" style="mix-blend-mode: multiply;isolation: isolate"/>
          <path id="Path_142-3" data-name="Path 142" d="M620.465,81.742a.611.611,0,1,1,.61.611A.611.611,0,0,1,620.465,81.742Z" transform="translate(-602.883 -78.253)" fill="#85c226" style="mix-blend-mode: multiply;isolation: isolate"/>
          <path id="Path_143-3" data-name="Path 143" d="M603.8,107.539a.611.611,0,1,1,.611.611A.611.611,0,0,1,603.8,107.539Z" transform="translate(-597.042 -87.297)" fill="#85c226" style="mix-blend-mode: multiply;isolation: isolate"/>
          <path id="Path_144-3" data-name="Path 144" d="M603.67,98a.611.611,0,1,1,.61.61A.611.611,0,0,1,603.67,98Z" transform="translate(-596.995 -83.953)" fill="#85c226" style="mix-blend-mode: multiply;isolation: isolate"/>
          <path id="Path_145-3" data-name="Path 145" d="M621.405,98.268a.611.611,0,1,1,.611.611A.611.611,0,0,1,621.405,98.268Z" transform="translate(-603.213 -84.047)" fill="#85c226" style="mix-blend-mode: multiply;isolation: isolate"/>
          <ellipse id="Ellipse_30-3" data-name="Ellipse 30" cx="0.611" cy="0.611" rx="0.611" ry="0.611" transform="translate(16.36 19.283)" fill="#85c226" style="mix-blend-mode: multiply;isolation: isolate"/>
          <path id="Path_146-3" data-name="Path 146" d="M596.952,82.683a.611.611,0,1,1,.61.61A.611.611,0,0,1,596.952,82.683Z" transform="translate(-594.64 -78.582)" fill="#85c226" style="mix-blend-mode: multiply;isolation: isolate"/>
          <path id="Path_147-3" data-name="Path 147" d="M604.476,77.308a.611.611,0,1,1,.61.611A.611.611,0,0,1,604.476,77.308Z" transform="translate(-597.278 -76.698)" fill="#85c226" style="mix-blend-mode: multiply;isolation: isolate"/>
          <path id="Path_148-3" data-name="Path 148" d="M616.971,90.207a.611.611,0,1,1,.611.61A.611.611,0,0,1,616.971,90.207Z" transform="translate(-601.659 -81.22)" fill="#85c226" style="mix-blend-mode: multiply;isolation: isolate"/>
          <path id="Path_149-3" data-name="Path 149" d="M615.561,85.535a.305.305,0,1,1,.305.305A.3.3,0,0,1,615.561,85.535Z" transform="translate(-601.164 -79.689)" fill="#85c226" style="mix-blend-mode: multiply;isolation: isolate"/>
          <path id="Path_150-3" data-name="Path 150" d="M619.188,86.207a.306.306,0,1,1,.306.305A.306.306,0,0,1,619.188,86.207Z" transform="translate(-602.436 -79.925)" fill="#85c226" style="mix-blend-mode: multiply;isolation: isolate"/>
          <path id="Path_151-3" data-name="Path 151" d="M602.662,93.462a.306.306,0,1,1,.305.305A.305.305,0,0,1,602.662,93.462Z" transform="translate(-596.642 -82.469)" fill="#85c226" style="mix-blend-mode: multiply;isolation: isolate"/>
          <path id="Path_152-3" data-name="Path 152" d="M606.223,84.863a.305.305,0,1,1,.305.305A.3.3,0,0,1,606.223,84.863Z" transform="translate(-597.89 -79.454)" fill="#85c226" style="mix-blend-mode: multiply;isolation: isolate"/>
          <path id="Path_153-3" data-name="Path 153" d="M616.232,95.746a.306.306,0,1,1,.306.306A.306.306,0,0,1,616.232,95.746Z" transform="translate(-601.399 -83.27)" fill="#85c226" style="mix-blend-mode: multiply;isolation: isolate"/>
          <path id="Path_154-3" data-name="Path 154" d="M621.943,93.664a.305.305,0,1,1,.305.305A.305.305,0,0,1,621.943,93.664Z" transform="translate(-603.402 -82.539)" fill="#85c226" style="mix-blend-mode: multiply;isolation: isolate"/>
          <path id="Path_155-3" data-name="Path 155" d="M615.09,105.756a.306.306,0,1,1,.306.305A.305.305,0,0,1,615.09,105.756Z" transform="translate(-600.999 -86.779)" fill="#85c226" style="mix-blend-mode: multiply;isolation: isolate"/>
          <path id="Path_156-3" data-name="Path 156" d="M598.295,97.829a.306.306,0,1,1,.306.305A.305.305,0,0,1,598.295,97.829Z" transform="translate(-595.11 -84)" fill="#85c226" style="mix-blend-mode: multiply;isolation: isolate"/>
          <path id="Path_157-3" data-name="Path 157" d="M595.138,87.55a.305.305,0,1,1,.305.306A.305.305,0,0,1,595.138,87.55Z" transform="translate(-594.004 -80.396)" fill="#85c226" style="mix-blend-mode: multiply;isolation: isolate"/>
          <path id="Path_158-3" data-name="Path 158" d="M602.192,104.009a.305.305,0,1,1,.305.306A.305.305,0,0,1,602.192,104.009Z" transform="translate(-596.477 -86.167)" fill="#85c226" style="mix-blend-mode: multiply;isolation: isolate"/>
          <path id="Path_159-3" data-name="Path 159" d="M593.391,93.664a.306.306,0,1,1,.305.305A.306.306,0,0,1,593.391,93.664Z" transform="translate(-593.391 -82.539)" fill="#85c226" style="mix-blend-mode: multiply;isolation: isolate"/>
          <path id="Path_160-3" data-name="Path 160" d="M607.9,110.324a.306.306,0,1,1,.305.306A.306.306,0,0,1,607.9,110.324Z" transform="translate(-598.479 -88.381)" fill="#85c226" style="mix-blend-mode: multiply;isolation: isolate"/>
          <path id="Path_161-3" data-name="Path 161" d="M626.041,89.566a.305.305,0,1,1,.305.305A.305.305,0,0,1,626.041,89.566Z" transform="translate(-604.839 -81.102)" fill="#85c226" style="mix-blend-mode: multiply;isolation: isolate"/>
          <path id="Path_162-3" data-name="Path 162" d="M596.549,101.09a.611.611,0,1,1,.61.611A.611.611,0,0,1,596.549,101.09Z" transform="translate(-594.498 -85.036)" fill="#85c226" style="mix-blend-mode: multiply;isolation: isolate"/>
          <path id="Path_163-3" data-name="Path 163" d="M608.91,92.47a1.4,1.4,0,1,1,1.4,1.4A1.4,1.4,0,0,1,608.91,92.47Z" transform="translate(-598.832 -81.738)" fill="#85c226" style="mix-blend-mode: multiply;isolation: isolate"/>
        </g>
      </g>
      <g id="Group_239" data-name="Group 239" transform="translate(9)">
        <text id="COVID-19" transform="translate(175 109)" font-size="29" font-family="Montserrat-Bold, Montserrat" font-weight="700"><tspan x="0" y="0">COVID-19</tspan></text>
        <text id="Kenya_Community_Social_Response_App" data-name="Kenya Community Social 
Response App" transform="translate(182 125)" fill="#00a651" font-size="12" font-family="Montserrat-Medium, Montserrat" font-weight="500"><tspan x="0" y="0">Kenya Community Social </tspan><tspan x="0" y="15">Response App</tspan></text>
      </g>
    </g>
  </g>
</svg>
